<?xml version="1.0" encoding="utf-8"?>
<!-- Generator: Adobe Illustrator 21.1.0, SVG Export Plug-In . SVG Version: 6.00 Build 0)  -->
<svg version="1.1" id="Layer_1" xmlns="http://www.w3.org/2000/svg" xmlns:xlink="http://www.w3.org/1999/xlink" x="0px" y="0px"
	 viewBox="0 0 360 120" enable-background="new 0 0 360 120" xml:space="preserve">
<g>
	<path d="M13.764,44.098h5.548V57.48H30.28V44.098h5.548v31.761H30.28V62.096H19.312v13.763h-5.548L13.764,44.098L13.764,44.098z"/>
	<path d="M50.225,44.098h17.109v4.658H55.731v8.724h10.333v4.616H55.731v8.978h12.027v4.785H50.225L50.225,44.098L50.225,44.098z"/>
	<path d="M81.097,44.098h5.548v26.849h11.392v4.912H81.097L81.097,44.098L81.097,44.098z"/>
	<path d="M114.424,75.859h-5.167V44.098h8.427l4.743,19.819c0.423,1.694,0.847,3.684,1.186,5.378
		c0.381-1.694,0.805-3.684,1.228-5.378l4.828-19.819h8.173v31.761h-5.167l-0.042-20.708c0-1.525,0.042-3.769,0.127-5.675
		c-0.424,1.779-0.889,3.811-1.186,5.039l-5.251,21.344h-5.548l-5.336-21.344c-0.296-1.186-0.72-3.091-1.143-4.828
		c0.085,1.863,0.127,3.981,0.127,5.463V75.859z"/>
	<path d="M152.029,65.315V44.098h5.378v21.64c0,4.404,1.567,6.395,5.336,6.395c3.896,0,5.505-1.948,5.505-6.437V44.098h5.378v21.216
		c0,6.395-2.626,11.18-10.968,11.18C154.359,76.495,152.029,71.752,152.029,65.315z"/>
	<path d="M192.133,48.841h-8.131v-4.743h21.809v4.743h-8.131v27.018h-5.548V48.841z"/>
	<path d="M234.607,44.098h5.548v26.849h11.392v4.912h-16.939V44.098z"/>
	<path d="M274.329,69.465h-9.401l-1.736,6.395h-5.294l8.893-31.761h5.971l8.893,31.761h-5.59L274.329,69.465z M265.859,65.188h7.538
		l-2.371-9.105c-0.847-3.345-1.398-6.056-1.398-6.056s-0.55,2.71-1.397,6.056L265.859,65.188z"/>
	<path d="M296.011,75.859h-5.166V44.098h5.717l7.369,15.415c1.313,2.753,2.456,5.294,3.218,6.987
		c-0.042-2.16-0.127-5.802-0.127-9.867V44.098h5.166v31.761h-5.59l-7.369-15.415c-1.44-3.007-2.626-5.675-3.345-7.369
		c0.042,2.033,0.127,5.675,0.127,9.952V75.859z"/>
	<path d="M341.704,72.302c-1.44,2.583-4.065,4.108-7.623,4.108c-6.775,0-11.349-5.378-11.307-16.558
		c0-10.756,4.828-16.346,12.154-16.346c6.437,0,9.825,3.769,10.756,10.037l-5.039,0.889c-0.847-4.828-2.583-6.437-5.76-6.437
		c-4.065,0-6.606,3.049-6.606,11.858c0,7.919,2.371,12.196,6.733,12.196c3.812,0,6.14-3.345,6.14-8.046v-0.296h-5.971v-4.616h11.053
		v16.77h-4.277L341.704,72.302z"/>
</g>
</svg>
