<?xml version="1.0" encoding="utf-8"?>
<!-- Generator: Adobe Illustrator 21.1.0, SVG Export Plug-In . SVG Version: 6.00 Build 0)  -->
<svg version="1.1" id="Layer_1" xmlns="http://www.w3.org/2000/svg" xmlns:xlink="http://www.w3.org/1999/xlink" x="0px" y="0px"
	 viewBox="0 0 912 432" style="enable-background:new 0 0 912 432;" xml:space="preserve">
<style type="text/css">
	.st0{fill:#092DC5;}
</style>
<g>
	<path class="st0" d="M203.1,339c7.9-3.6,11.9-9.5,11.9-17.5c0-6-2.2-10.9-6.5-14.4s-10.4-5.3-18.3-5.3h-19.6v73.5h8.4v-33.8h8.1
		c4.1,0,7.2,0.7,9.2,2.1c2.1,1.5,5.2,5.4,9.2,11.7l12.7,20h10l-17.4-26.7C207.9,344.1,205.4,340.9,203.1,339z M179,309.3h10.1
		c5.6,0,10,1.1,12.9,3.3c2.8,2.2,4.2,5.1,4.2,9c0,4-1.4,6.9-4.1,9.1c-2.9,2.2-7.2,3.3-12.8,3.3H179V309.3z"/>
	<path class="st0" d="M289,300.9c-10.8,0-20,3.7-27.5,10.9c-7.5,7.3-11.3,16.3-11.3,26.7c0,10.4,3.8,19.4,11.3,26.7
		c7.5,7.3,16.7,10.9,27.5,10.9c10.8,0,20.1-3.7,27.6-10.9c7.5-7.3,11.3-16.3,11.3-26.7c0-10.5-3.8-19.5-11.3-26.7
		C309,304.6,299.8,300.9,289,300.9z M289.1,368.3c-8.4,0-15.6-2.9-21.4-8.6s-8.7-12.8-8.7-21.1c0-8.3,2.9-15.4,8.7-21.1
		c5.8-5.7,13-8.6,21.4-8.6c8.3,0,15.5,2.9,21.2,8.6c5.7,5.7,8.6,12.8,8.6,21.1c0,8.3-2.9,15.4-8.6,21.1S297.5,368.3,289.1,368.3z"/>
	<polygon class="st0" points="352.1,309.3 378.6,309.3 378.6,375.3 387.1,375.3 387.1,309.3 413.6,309.3 413.6,301.8 352.1,301.8 	
		"/>
	<polygon class="st0" points="498.9,334.4 454.6,334.4 454.6,301.8 446.4,301.8 446.4,375.3 454.6,375.3 454.6,341.9 498.9,341.9 
		498.9,375.3 507.2,375.3 507.2,301.8 498.9,301.8 	"/>
	<polygon class="st0" points="571.2,329.4 548.3,302.3 538,302.3 567,337 567,375.8 575.5,375.8 575.5,337 604.5,302.3 594,302.3 	
		"/>
	<path class="st0" d="M701.1,344.7c-1.8-2.7-4.1-4.9-6.8-6.3c-2.5-1.4-6.5-3.1-11.9-5.1c-5.1-1.9-8.4-3.9-9.9-5.8s-2.2-4.1-2.2-6.5
		c0-3.4,1.2-6.2,3.8-8.5s5.7-3.5,9.7-3.5c4.1,0,9.2,1.8,15.1,5.2l2.2,1.3V306l-0.8-0.4c-5.6-3.1-11.3-4.6-17-4.6
		c-5.9,0-11.1,2-15.3,5.9c-4.3,3.9-6.4,8.7-6.4,14.3c0,4,0.9,7.4,2.7,10s3.9,4.5,6.5,5.9c2.4,1.3,6.4,3,11.9,5.1
		c5.2,2,8.6,4.1,10.2,6.3c1.6,2.2,2.4,4.5,2.4,7.2c0,3.6-1.3,6.5-3.9,8.9c-2.6,2.5-5.8,3.7-9.6,3.7c-4.7,0-10.4-2.4-16.9-7.2
		l-2.3-1.7v10.1l0.7,0.4c6.4,4.3,12.8,6.4,18.9,6.4c6.1,0,11.3-2,15.5-6c4.3-4,6.4-9,6.4-14.8C703.9,351.1,703,347.4,701.1,344.7z"
		/>
</g>
<g>
	<path class="st0" d="M719.4,365.8v-1.3h8.7v1.3h-3.6v10H723v-10H719.4z"/>
	<path class="st0" d="M731.4,364.5l3.4,9.5l3.5-9.5h2v11.3h-1.4v-9.4l0,0l-3.4,9.4h-1.2l-3.4-9.4l0,0v9.4h-1.4v-11.3H731.4z"/>
</g>
<path class="st0" d="M626.5,323.5c1.2-2.3,2.5-4.2,3.2-6.4c0.7-2.1,0.8-4.1-1.9-5.5c-3-1.6-3.4-6-1.2-8.6c2.4-2.8,6.4-2.3,8.2,1.1
	C638.1,310.2,634.8,321.6,626.5,323.5z"/>
<g>
	<path class="st0" d="M437.4,54c-45.5,0-82.6,37.1-82.6,82.6s37.1,82.6,82.6,82.6s82.6-37.1,82.6-82.6S482.9,54,437.4,54z
		 M437.4,211.6c-41.4,0-75-33.6-75-75s33.6-75,75-75s75,33.6,75,75C512.3,177.9,478.6,211.6,437.4,211.6z"/>
	<path class="st0" d="M446.9,101.7c-14.3,6.1-22,16.1-22.2,28.9l0,0c0,0.1,0,0.2,0,0.3s0,0.2,0,0.3l0,0c0.2,9.2,5.8,16.4,12.8,16.4
		c7.2,0,12.8-7.4,12.8-16.9c0-5-2.3-11.1-5.4-14.9l-5.8,5.1c2.3,2.9,3.6,6.8,3.6,9.9c0,5.3-2.8,9.3-5.2,9.3c-2.4,0-5.2-3.9-5.2-9.1
		c0.1-9.7,6-17.2,17.6-22.1c6.8-2.9,13.9-4.2,18.2-4.7v32.5c0,12.8-5.3,24.2-15.8,33.9c-6,5.6-12.1,9-14.8,10.4
		c-6.4-3.2-30.7-17.3-30.7-44.3V104c5,0.6,14,2.2,21.1,6.2l5.6-5.6c0,0-0.6-0.4-0.7-0.4c-13.1-7.5-29-8-29.7-8l-3.9-0.1v40.5
		c0,14.9,6.4,28.6,18.5,39.7c9,8.3,17.9,12.1,18.3,12.3l1.5,0.6l1.5-0.6c0.4-0.2,9.3-4.1,18.3-12.3c12.1-11.1,18.5-24.8,18.5-39.7
		V96.1h-3.8C469.4,96.1,457.8,97.1,446.9,101.7z"/>
</g>
</svg>
