<?xml version="1.0" encoding="utf-8"?>
<!-- Generator: Adobe Illustrator 21.1.0, SVG Export Plug-In . SVG Version: 6.00 Build 0)  -->
<svg version="1.1" id="Layer_1" xmlns="http://www.w3.org/2000/svg" xmlns:xlink="http://www.w3.org/1999/xlink" x="0px" y="0px"
	 viewBox="0 0 356 74" style="enable-background:new 0 0 356 74;" xml:space="preserve">
<g>
	<path d="M72.2,23.5v1.7c0,5-1.5,8.2-5,9.8c4.1,1.6,5.7,5.3,5.7,10.5v4c0,7.5-4,11.6-11.7,11.6H49.3V12.3h11.6
		C68.8,12.3,72.2,16,72.2,23.5z M56.9,19.2v12.9h3c2.9,0,4.6-1.3,4.6-5.2v-2.7c0-3.5-1.2-5-3.9-5C60.6,19.2,56.9,19.2,56.9,19.2z
		 M56.9,39.1v15h4.4c2.6,0,4-1.2,4-4.8V45c0-4.5-1.5-5.9-5-5.9H56.9L56.9,39.1z"/>
	<path d="M83.9,12.3V50c0,3.5,1.5,4.7,4,4.7s4-1.3,4-4.7V12.3h7.3v37.2c0,7.8-3.9,12.3-11.4,12.3s-11.4-4.5-11.4-12.3V12.3H83.9z"/>
	<path d="M125.4,42.9v6.5c0,7.8-3.9,12.3-11.4,12.3s-11.4-4.5-11.4-12.3V24c0-7.8,3.9-12.3,11.4-12.3s11.4,4.5,11.4,12.3v4.7h-7.3
		v-5.2c0-3.5-1.5-4.8-4-4.8c-2.4,0-4,1.3-4,4.8v26.4c0,3.5,1.5,4.7,4,4.7c2.4,0,4-1.3,4-4.7v-7H125.4L125.4,42.9z"/>
	<path d="M138.8,41.6l-2.4,4.5v15h-7.7V12.3h7.7v21.3l10.2-21.3h7.5L143.5,34l10.7,27.1h-7.9L138.8,41.6z"/>
	<path d="M184.8,46.9l5.2-34.7h10.7v48.9h-7.3v-35l-5.3,35h-7.3l-5.7-34.5v34.5h-6.7V12.3h10.7L184.8,46.9z"/>
	<path d="M230.5,61.1h-7.7l-1.3-8.9H212l-1.3,8.9h-7l7.8-48.9h11.2L230.5,61.1z M213,45.6h7.4l-3.7-24.7L213,45.6z"/>
	<path d="M243.6,11.7c7.5,0,11.3,4.5,11.3,12.3v1.9h-7.3v-2.4c0-3.5-1.4-4.8-3.8-4.8c-2.4,0-3.8,1.3-3.8,4.8c0,10.1,15,11.9,15,25.9
		c0,7.8-3.9,12.3-11.4,12.3s-11.4-4.5-11.4-12.3V46h7.3v3.8c0,3.5,1.5,4.7,4,4.7c2.4,0,4-1.3,4-4.7c0-10.1-15-11.9-15-25.9
		C232.3,16.2,236.1,11.7,243.6,11.7z"/>
	<path d="M258,24c0-7.8,4.1-12.3,11.7-12.3c7.5,0,11.7,4.5,11.7,12.3v25.4c0,7.8-4.1,12.3-11.7,12.3c-7.6,0-11.7-4.5-11.7-12.3V24z
		 M265.6,49.9c0,3.5,1.5,4.8,4,4.8c2.4,0,4-1.3,4-4.8V23.5c0-3.5-1.5-4.8-4-4.8c-2.4,0-4,1.3-4,4.8V49.9z"/>
	<path d="M291.8,25.7v35.4h-6.9V12.3h9.6l7.9,29.2V12.3h6.8v48.9h-7.9L291.8,25.7z"/>
</g>
</svg>
