<?xml version="1.0" encoding="utf-8"?>
<!-- Generator: Adobe Illustrator 21.1.0, SVG Export Plug-In . SVG Version: 6.00 Build 0)  -->
<svg version="1.1" id="Layer_1" xmlns="http://www.w3.org/2000/svg" xmlns:xlink="http://www.w3.org/1999/xlink" x="0px" y="0px"
	 viewBox="0 0 414 360" style="enable-background:new 0 0 414 360;" xml:space="preserve">
<style type="text/css">
	.st0{fill:#44273A;}
</style>
<g>
	<g>
		<path id="SVGID_1_" class="st0" d="M228.8,174.9c0-5.4-4.2-10-9.6-10.5c-1.3-0.1-2.5-0.9-3-2.1c-0.5-1.2-0.4-2.6,0.4-3.7l4.5-5.9
			H211v-7.2h17.5c1.4,0,2.6,0.8,3.2,2c0.6,1.2,0.5,2.7-0.4,3.8l-5.7,7.4c6.3,2.9,10.3,9.2,10.4,16.1c0,9.8-7.9,17.8-17.7,17.8
			c-9.8,0-17.7-7.9-17.7-17.7v-0.4l7.2,0v0.4c0,5.8,4.7,10.5,10.5,10.5C224.1,185.4,228.8,180.7,228.8,174.9z M206.1,108.3
			l-28.9,38.5c-0.6,0.7-0.9,1.5-0.9,2.4c0,1.6,1,2.9,2.5,3.4c0.4,0.1,0.8,0.2,1.1,0.2c0.2,0,0.3,0,0.4,0h20.3v18h7.2v-37.5h-7.2
			v12.3h-13.4l18.9-25.2L206.1,108.3L206.1,108.3z M148.4,174.8l5.4-6.8l-0.1-0.2c-1.2-4.4-1.8-9-1.8-13.6
			c0-29.1,23.6-52.7,52.7-52.7s52.7,23.6,52.7,52.7s-23.6,52.7-52.7,52.7c-18.4,0-35.7-9.8-45.2-25.7l20.6-26.3h-9.2l-8.1,10.6
			l-10.4,13.2c-0.5,0.6-0.8,1.4-0.8,2.2c0,0.6,0.2,1.2,0.4,1.7l0,0.1c0.5,1,1.1,1.9,1.7,2.9c11,17.8,30.1,28.5,51,28.5
			c33.1,0,59.9-26.9,59.9-59.9s-26.9-59.9-59.9-59.9s-59.9,26.9-59.9,59.9c0,6.8,1.1,13.5,3.4,19.9L148.4,174.8z M111.2,238.4
			l10.3,26.7h-5.3l-2.1-5.5h-10.9l-2.2,5.5h-5.3l10.3-26.7L111.2,238.4L111.2,238.4z M112.2,254.6l-3.6-9.2l-3.6,9.2H112.2z
			 M130.5,238.4h-5.1v26.7h12.5v-4.9h-7.4V238.4z M154.6,242.6c3,0,5.7,1.3,8.2,3.8l3.6-3.4c-1.5-1.7-3.2-3-5.3-4
			c-2-0.9-4.2-1.4-6.4-1.4c-2.6,0-5,0.6-7.3,1.9s-4,2.9-5.2,5c-1.2,2.1-1.8,4.4-1.8,7.1c0,4.1,1.3,7.5,4,10.1c2.6,2.6,6,4,10.2,4
			c2.3,0,4.3-0.4,6-1.1c1.8-0.7,3.6-2.1,5.6-4l-3.4-3.6c-1.5,1.5-2.8,2.5-4,3c-1.2,0.6-2.6,0.8-4,0.8c-1.7,0-3.3-0.4-4.7-1.2
			c-1.4-0.8-2.5-1.9-3.3-3.3c-0.8-1.4-1.2-3-1.2-4.7c0-2.6,0.9-4.7,2.6-6.5C149.9,243.5,152.1,242.6,154.6,242.6z M184.9,248.4h-8.9
			v-10.1h-5.2v26.7h5.2v-11.7h8.9v11.7h5.1v-26.7h-5.1V248.4z M194.6,265.1h14.6v-5h-9.5v-7h9.5v-4.9h-9.5v-4.8h9.5v-5h-14.6V265.1z
			 M235.5,238.4l-6.3,18.6l-6.2-18.6h-5l-4.6,26.7h5l2.9-16.9l5.6,16.9h4.5l5.7-16.9l2.9,16.9h4.9l-4.5-26.7L235.5,238.4
			L235.5,238.4z M256,248l-5-9.6h-5.5l7.9,15.2v11.6h5.1v-11.6l7.8-15.2H261L256,248z M295.3,254.9h2.4v4.7h-2.4v5.5h-5v-5.5h-11.7
			v-4.7l11.6-17.2h5.1L295.3,254.9L295.3,254.9z M290.3,245.9l-6.1,9h6.1V245.9z M316.9,252.9c-0.9-1.2-2.2-2.1-3.8-2.5
			c1.2-0.6,2.2-1.4,2.8-2.4c0.6-1,1-2.1,1-3.3c0-1.9-0.7-3.6-2.2-5c-1.5-1.4-3.3-2.1-5.5-2.1c-2.5,0-4.5,0.8-6.1,2.5
			c-1.2,1.2-1.9,2.8-2.1,4.8h4.9c0.2-0.7,0.6-1.3,1.2-1.7c0.6-0.4,1.3-0.7,2-0.7c0.8,0,1.5,0.2,2,0.7c0.5,0.5,0.8,1.1,0.8,1.8
			c0,0.6-0.2,1.1-0.5,1.6c-0.3,0.5-0.8,0.9-1.4,1.2c-0.6,0.3-1.5,0.5-2.7,0.6v4.4c2,0,3.5,0.5,4.6,1.3c1.1,0.8,1.6,1.9,1.6,3.1
			c0,1.1-0.4,2-1.2,2.8c-0.8,0.8-1.8,1.1-3,1.1c-1.1,0-2.1-0.3-2.8-1c-0.7-0.7-1.2-1.7-1.4-3.1h-5c0.2,2.7,1.1,4.8,2.7,6.4
			c1.6,1.6,3.7,2.4,6.3,2.4c2.7,0,5-0.8,6.8-2.5c1.8-1.7,2.7-3.7,2.7-6.1C318.3,255.5,317.8,254.1,316.9,252.9z"/>
	</g>
</g>
</svg>
