<?xml version="1.0" encoding="utf-8"?>
<!-- Generator: Adobe Illustrator 21.1.0, SVG Export Plug-In . SVG Version: 6.00 Build 0)  -->
<svg version="1.1" id="Layer_1" xmlns="http://www.w3.org/2000/svg" xmlns:xlink="http://www.w3.org/1999/xlink" x="0px" y="0px"
	 viewBox="0 0 30 68" enable-background="new 0 0 30 68" xml:space="preserve">
<g>
	<path fill="#E5F0FA" stroke="#0071CE" stroke-width="1.395" stroke-miterlimit="10" d="M15,67.169
		c-0.909,0-3.294-0.122-4.205-0.203c-1.694-0.151-2.95-0.869-3.632-2.515c-0.891-2.148-1.918-4.241-2.769-6.404
		c-1.545-3.929-2.73-7.971-3.219-12.176c-0.406-3.484,0.901-6.537,2.655-9.438c1.846-3.053,2.988-6.327,2.023-9.868
		c-0.658-2.415-1.81-4.697-2.775-7.025c-0.659-1.59-1.523-3.11-2.033-4.743c-0.715-2.287,0.156-3.903,2.349-4.86
		c0.661-0.289,1.347-0.52,2.019-0.785c3.383-1.337,4.461-2.847,4.418-6.453c-0.011-0.942,0.39-1.33,1.181-1.489
		c0.85-0.171,3.001-0.379,3.988-0.379s3.137,0.208,3.988,0.379c0.79,0.159,1.192,0.547,1.181,1.489
		c-0.042,3.607,1.035,5.116,4.418,6.453c0.672,0.265,1.358,0.496,2.019,0.785c2.193,0.958,3.064,2.573,2.349,4.86
		c-0.51,1.633-1.374,3.153-2.033,4.743c-0.965,2.328-2.117,4.61-2.775,7.025c-0.965,3.541,0.177,6.815,2.023,9.868
		c1.754,2.901,3.061,5.954,2.655,9.438c-0.49,4.205-1.674,8.247-3.219,12.176c-0.851,2.163-1.878,4.256-2.769,6.404
		c-0.682,1.646-1.938,2.364-3.632,2.515C18.294,67.047,15.909,67.169,15,67.169z"/>
</g>
</svg>
