<?xml version="1.0" encoding="utf-8"?>
<!-- Generator: Adobe Illustrator 21.1.0, SVG Export Plug-In . SVG Version: 6.00 Build 0)  -->
<svg version="1.1" id="Layer_1" xmlns="http://www.w3.org/2000/svg" xmlns:xlink="http://www.w3.org/1999/xlink" x="0px" y="0px"
	 viewBox="0 0 54 50" enable-background="new 0 0 54 50" xml:space="preserve">
<path fill="#E5F0FA" d="M53.127,33.645c0,7.248-5.876,13.123-13.123,13.123s-11.44-4.92-11.44-4.92s0.784-4.741,1.085-9.376
	c0.211-3.255-0.288-6.613,0.568-7.57c2.403-2.688,5.897-4.38,9.787-4.38C47.252,20.522,53.127,26.397,53.127,33.645z"/>
<path fill="#B6D5F1" d="M43.364,24.569c0,0-1.515-2.332-2.54-4.149s-2.187-8.016-1.412-8.326c0.775-0.31,5.734,5.192,5.734,5.192
	s5.657-5.579,6.664-4.959c1.007,0.62,1.007,5.192-1.472,7.594C47.858,22.321,43.364,24.569,43.364,24.569z"/>
<path fill="#E5F0FA" d="M2.915,13.798c-0.775-0.31-1.86,0.387-1.86,0.387s0.155,11.158,0.387,15.188s1.782,13.638,1.782,13.638
	l3.351,5.502l18.597,0.116l3.313-4.533c0,0,1.162-6.276,1.55-10.151c0.387-3.874,0.93-18.055,0.93-18.055s-5.579-3.564-7.826-3.254
	c-2.247,0.31-9.531,3.254-11.856,3.332"/>
<g>
	<path fill="none" stroke="#0071CE" stroke-width="1.3948" stroke-miterlimit="10" d="M30.509,15.504c0,0-4.486-2.39-8.282-2.39
		s-8.054,3.187-12.19,3.187c-3.872,0-8.749-3.187-8.749-3.187"/>
	
		<line fill="none" stroke="#0071CE" stroke-width="1.3948" stroke-linecap="round" stroke-linejoin="round" stroke-miterlimit="10" x1="28.446" y1="43.275" x2="3.865" y2="43.275"/>
	<path fill="none" stroke="#0071CE" stroke-width="1.395" stroke-miterlimit="10" d="M16.23,48.852c0,0-6.216,0-7.544,0
		c-1.726,0-2.945-0.906-3.696-2.324c-0.985-1.859-1.593-3.718-2.125-7.038s-1.062-8.1-1.195-12.216S0.874,4.567,0.874,3.372
		S0.742,1.148,2.866,1.148s13.364,0,13.364,0"/>
	<path fill="none" stroke="#0071CE" stroke-width="1.3948" stroke-miterlimit="10" d="M15.89,48.852c0,0,6.216,0,7.544,0
		c1.726,0,2.945-0.906,3.696-2.324c0.985-1.859,1.593-3.718,2.125-7.038s1.062-8.1,1.195-12.216
		c0.133-4.116,0.797-22.707,0.797-23.902s0.133-2.224-1.992-2.224s-13.364,0-13.364,0"/>
	<path fill="none" stroke="#0071CE" stroke-width="1.3948" stroke-miterlimit="10" d="M30.506,24.053
		c2.397-2.28,5.639-3.679,9.207-3.679c0.374,0,0.744,0.015,1.11,0.045"/>
	<path fill="none" stroke="#0071CE" stroke-width="1.3948" stroke-miterlimit="10" d="M47.565,22.923
		c3.339,2.429,5.509,6.367,5.509,10.812c0,7.379-5.982,13.361-13.361,13.361c-4.462,0-8.414-2.188-10.84-5.549"/>
	<path fill="none" stroke="#0071CE" stroke-width="1.3948" stroke-miterlimit="10" d="M44.94,17.869
		c-1.824-3.912-5.083-6.254-5.492-6.063c-0.511,0.238-0.71,4.192,1.114,8.104c0.745,1.598,2.631,3.956,2.631,3.956"/>
	<path fill="none" stroke="#0071CE" stroke-width="1.3948" stroke-miterlimit="10" d="M45.854,17.187
		c-2.476,3.536-2.967,7.464-2.505,7.788c0.369,0.259,3.985-1.481,6.461-5.017c2.476-3.536,2.874-7.529,2.505-7.788
		C51.854,11.846,48.33,13.651,45.854,17.187z"/>
</g>
</svg>
