<?xml version="1.0" encoding="UTF-8"?>
<svg width="37px" height="51px" viewBox="0 0 37 51" version="1.1" xmlns="http://www.w3.org/2000/svg" xmlns:xlink="http://www.w3.org/1999/xlink">
    <!-- Generator: Sketch 45.1 (43504) - http://www.bohemiancoding.com/sketch -->
    <title>pin_icon</title>
    <desc>Created with Sketch.</desc>
    <defs></defs>
    <g id="Page-1" stroke="none" stroke-width="1" fill="none" fill-rule="evenodd">
        <g id="IGC_Contact_Us_ICONS" transform="translate(-701.000000, -221.000000)" stroke="#FFFFFF" stroke-width="1.6">
            <g id="Address" transform="translate(607.000000, 222.000000)">
                <g id="pin_icon" transform="translate(95.000000, 0.000000)">
                    <path d="M35.0099,17.8535 C35.0099,30.2055 17.8539,48.3975 17.8539,48.3975 C17.8539,48.3975 0.6969,30.1425 0.6969,17.8535 C0.6969,8.3785 8.3789,0.6975 17.8539,0.6975 C27.3279,0.6975 35.0099,8.3785 35.0099,17.8535 Z" id="Stroke-1"></path>
                    <path d="M24.1173,17.8535 C24.1173,21.3135 21.3123,24.1175 17.8533,24.1175 C14.3943,24.1175 11.5903,21.3135 11.5903,17.8535 C11.5903,14.3945 14.3943,11.5895 17.8533,11.5895 C21.3123,11.5895 24.1173,14.3945 24.1173,17.8535 Z" id="Stroke-3"></path>
                </g>
            </g>
        </g>
    </g>
</svg>