<?xml version="1.0" encoding="UTF-8"?>
<svg width="62px" height="42px" viewBox="0 0 62 42" version="1.1" xmlns="http://www.w3.org/2000/svg" xmlns:xlink="http://www.w3.org/1999/xlink">
    <!-- Generator: Sketch 45.1 (43504) - http://www.bohemiancoding.com/sketch -->
    <title>SAAS ICON</title>
    <desc>Created with Sketch.</desc>
    <defs></defs>
    <g id="Page-1" stroke="none" stroke-width="1" fill="none" fill-rule="evenodd">
        <g id="IGC_Investment-Strategy" transform="translate(-544.000000, -683.000000)">
            <g id="INVESTMENT-STRATEGY-Copy">
                <g id="4-CONSUMER-TECHNOLOGY" transform="translate(450.000000, 683.000000)">
                    <g id="SAAS-ICON" transform="translate(94.000000, 0.000000)">
                        <path d="M50.8575,20.3179 C51.7475,18.5069 52.2615,16.4769 52.2615,14.3219 C52.2615,6.7969 46.1615,0.6979 38.6365,0.6979 C31.4875,0.6979 25.6365,6.2069 25.0685,13.2099 C23.3825,10.2549 20.2095,8.2579 16.5645,8.2579 C11.1555,8.2579 6.7715,12.6419 6.7715,18.0499 C6.7715,19.0949 6.9385,20.0999 7.2415,21.0439 C3.4115,22.5559 0.6975,26.2839 0.6975,30.6519 C0.6975,36.3589 5.3245,40.9869 11.0325,40.9869 L50.8245,40.9869 C56.5325,40.9869 61.1595,36.3589 61.1595,30.6519 C61.1595,24.9549 56.5495,20.3369 50.8575,20.3179" id="Fill-1" fill="#E5F0FA"></path>
                        <path d="M50.8575,20.3179 C51.7475,18.5069 52.2615,16.4769 52.2615,14.3219 C52.2615,6.7969 46.1615,0.6979 38.6365,0.6979 C31.4875,0.6979 25.6365,6.2069 25.0685,13.2099 C23.3825,10.2549 20.2095,8.2579 16.5645,8.2579 C11.1555,8.2579 6.7715,12.6419 6.7715,18.0499 C6.7715,19.0949 6.9385,20.0999 7.2415,21.0439 C3.4115,22.5559 0.6975,26.2839 0.6975,30.6519 C0.6975,36.3589 5.3245,40.9869 11.0325,40.9869 L50.8245,40.9869 C56.5325,40.9869 61.1595,36.3589 61.1595,30.6519 C61.1595,24.9549 56.5495,20.3369 50.8575,20.3179 Z" id="Stroke-3" stroke="#0071CE" stroke-width="1.395" stroke-linecap="round" stroke-linejoin="round"></path>
                    </g>
                </g>
            </g>
        </g>
    </g>
</svg>