<?xml version="1.0" encoding="utf-8"?>
<!-- Generator: Adobe Illustrator 21.1.0, SVG Export Plug-In . SVG Version: 6.00 Build 0)  -->
<svg version="1.1" id="Layer_1" xmlns="http://www.w3.org/2000/svg" xmlns:xlink="http://www.w3.org/1999/xlink" x="0px" y="0px"
	 viewBox="0 0 402 120" style="enable-background:new 0 0 402 120;" xml:space="preserve">
<g>
	<g>
		<path d="M97.3,43.7C88.3,43.7,81,51,81,60s7.3,16.3,16.3,16.3c9,0,16.3-7.3,16.3-16.3C113.6,51,106.3,43.7,97.3,43.7z M97.3,72.9
			c-7.1,0-12.9-5.8-12.9-12.9s5.8-12.9,12.9-12.9s12.9,5.8,12.9,12.9S104.4,72.9,97.3,72.9z"/>
		<path d="M180.7,71.9c-1.1,0-2.1-0.2-3.1-0.6l-0.1,0c-1-0.5-2.1-0.7-3.3-0.7c-1.4,0-2.7,0.4-3.9,1l-1.5-2.1l0.4-0.6l0,0l6.6-9.4
			l-2-2.9l0,0c-0.6-0.8-0.9-1.7-0.9-2.7c0-2.6,2.1-4.6,4.6-4.6s4.6,2.1,4.6,4.6c0,1-0.3,2-0.9,2.8l-2,2.9l3.6,5.1l-2.3,1.6l-3-4.3
			l-4,5.7l0.3,0c0.1,0,0.3,0,0.4,0c1.5,0,3,0.3,4.4,0.9l0.1,0c0.6,0.3,1.3,0.4,1.9,0.4c1.5,0,3-0.7,3.9-1.9l1.7,2.4
			C184.8,71,182.8,71.9,180.7,71.9z M177.5,57l1.5-2.1c0.2-0.3,0.4-0.7,0.4-1.1c0-1-0.8-1.8-1.8-1.8s-1.8,0.8-1.8,1.8
			c0,0.4,0.1,0.8,0.4,1.1l0,0L177.5,57z"/>
		<path d="M68.6,57.8c1.6-1.2,2.6-3.1,2.6-5.2c0-4.4-3.6-8-8-8l-12.1,0c0,0,0.6,0.9,0.6,4l0,22.9c0,3.1-0.6,4-0.6,4l12.1,0
			c5.5,0,10-4.5,10-10.1C73.1,62.1,71.3,59.3,68.6,57.8z M63.1,72.1l-8,0V47.9h8c2.6,0,4.6,2.1,4.6,4.6c0,2.4-1.5,4.6-3.7,5.5
			l-0.8,0.3l0.9,0.2c3.3,0.6,5.6,3.5,5.6,6.9C69.7,69.1,66.7,72.1,63.1,72.1z"/>
		<path d="M152.4,44.5c0,0,0.2,1.6-1,4.4l-8.5,19.8l-8.5-19.8c-1.2-2.8-1-4.4-1-4.4h-4.3l7.2,16.7l-3.2,7.5l-8.5-19.8
			c-1.2-2.8-1-4.4-1-4.4H119l13.9,32.1l5-11.4l4.9,11.4l13.9-32.1L152.4,44.5L152.4,44.5z"/>
		<path d="M213.9,44.5h-8.7c0,0,0.6,0.9,0.6,4l0,22.9c0,3.1-0.6,4-0.6,4l9,0v0c8.4-0.1,15.2-7,15.2-15.5
			C229.4,51.5,222.4,44.5,213.9,44.5z M213.9,72.1h-4.7V47.9h4.7c6.7,0,12.1,5.4,12.1,12.1S220.5,72.1,213.9,72.1z"/>
		<path d="M260.3,75.5c0-5.5-2.4-10.4-6.2-13.9c2.3-1.6,3.8-4.2,4.1-7.2c0,0,0-0.1,0-0.1c0-0.2,0-0.3,0-0.5c0,0,0,0,0-0.1l0,0v0
			c0-5.1-4.1-9.2-9.2-9.2v0h-10.3c0,0,0.6,0.9,0.6,4v22.9c0,3.1-0.6,4-0.6,4h4.6c0,0-0.6-0.9-0.6-4V47.9l6.3,0
			c3.2,0,5.8,2.6,5.8,5.8c0,0,0,0,0,0.1c0,0.2,0,0.4,0,0.6c0,0,0,0.1,0,0.1c0,0.2-0.1,0.4-0.1,0.6c0,0,0,0,0,0c-0.6,3-3,5.4-6,5.9
			c0.8,0.5,1.6,1,2.3,1.6c0.1,0.1,0.2,0.2,0.3,0.3c3,2.6,5.1,6.4,5.5,10.5c0.1,1.5-0.2,2-0.2,2h0.3l0,0L260.3,75.5
			C260.3,75.5,260.3,75.5,260.3,75.5L260.3,75.5z"/>
		<path d="M296.5,75.5l-13.9-32.1l-13.9,32.1l4.3,0c0,0-0.2-1.6,1-4.4L275,69h15.2l0.9,2.2c1.2,2.8,1,4.4,1,4.4L296.5,75.5z
			 M276.5,65.6l6.1-14.2l6.1,14.2H276.5z"/>
		<path d="M315,44.5l-9.7,0c0,0,0.6,0.9,0.6,4l0,22.9c0,3.1-0.6,4-0.6,4l4.6,0c0,0-0.6-0.9-0.6-4v-7.5h5.6c5.4,0,9.7-4.4,9.7-9.7
			C324.7,48.8,320.4,44.5,315,44.5z M315,60.5h-5.6V47.9h6c3.3,0.2,5.9,3,5.9,6.3C321.3,57.7,318.5,60.5,315,60.5z"/>
		<path d="M333.6,44.5c0,0,0.6,0.9,0.6,4l0,22.9c0,3.1-0.6,4-0.6,4H351v-4c0,0-0.9,0.6-4,0.6l-9.3,0V61.7h5.4c3.1,0,4,0.6,4,0.6
			v-4.6c0,0-0.9,0.6-4,0.6l-5.4,0V47.9h9.3c3.1,0,4,0.6,4,0.6v-4L333.6,44.5z"/>
	</g>
</g>
</svg>
