<?xml version="1.0" encoding="utf-8"?>
<!-- Generator: Adobe Illustrator 22.0.1, SVG Export Plug-In . SVG Version: 6.00 Build 0)  -->
<svg version="1.1" id="Layer_1" xmlns="http://www.w3.org/2000/svg" xmlns:xlink="http://www.w3.org/1999/xlink" x="0px" y="0px"
	 viewBox="0 0 386 76" enable-background="new 0 0 386 76" xml:space="preserve">
<path fill="#2BB673" d="M329.266,1.667h-99.437c-3.665,0-6.636,2.971-6.636,6.636v21.703l-9.768,8.035l9.768,8.035v21.703
	c0,3.665,2.971,6.636,6.636,6.636h99.437c3.665,0,6.636-2.971,6.636-6.636V8.303C335.902,4.638,332.931,1.667,329.266,1.667z"/>
<g>
	<g>
		<path fill="#A8A9AD" d="M103.963,48.651l-2.912,10.494h-9.584l12.496-40.885h12.133l12.678,40.886h-9.949l-3.154-10.494h-11.708
			V48.651z M114.337,41.736l-2.548-8.675c-0.728-2.426-1.456-5.459-2.062-7.886h-0.121c-0.607,2.427-1.213,5.52-1.881,7.886
			l-2.426,8.675H114.337z"/>
		<path fill="#A8A9AD" d="M169.9,43.496c-0.182-4.914-0.364-10.859-0.364-16.804h-0.182c-1.274,5.217-2.973,11.04-4.55,15.833
			L159.83,58.48h-7.219l-4.367-15.833c-1.334-4.793-2.73-10.616-3.7-15.955h-0.121c-0.243,5.52-0.425,11.83-0.728,16.925
			l-0.728,15.53h-8.553l2.608-40.886h12.314l4.004,13.649c1.274,4.732,2.548,9.828,3.458,14.62h0.182
			c1.153-4.732,2.548-10.131,3.882-14.681l4.367-13.588h12.072l2.245,40.886h-9.039L169.9,43.496z"/>
		<path fill="#A8A9AD" d="M206.663,41.858h-9.65v9.706h16.803v7.582h-26.084V18.26h25.236v7.583h-15.955v8.493h9.65L206.663,41.858
			L206.663,41.858z"/>
	</g>
</g>
<path fill="#A8A9AD" d="M71.727,42.95h5.488v8.553c-0.728,0.363-2.426,0.607-4.55,0.607c-7.583,0-12.86-4.974-12.86-13.407
	c0-8.857,5.824-13.225,13.527-13.225c1.624,0,3.019,0.106,4.253,0.283l2.503-7.339c-1.874-0.351-4.114-0.588-6.634-0.588
	c-13.406,0-23.294,7.765-23.355,21.353c-0.061,6.006,2.002,11.344,5.763,14.863c3.761,3.639,9.16,5.52,16.621,5.52
	c5.399,0,10.798-1.334,13.649-2.305V35.73H74.188L71.727,42.95z"/>
<g>
	<path fill="#FFFFFF" d="M277.126,38.006c0,13.406-8.129,21.535-20.079,21.535c-12.132,0-19.23-9.16-19.23-20.807
		c0-12.254,7.825-21.414,19.897-21.414C270.271,17.32,277.126,26.722,277.126,38.006z M247.583,38.552
		c0,8.007,3.761,13.649,9.949,13.649c6.248,0,9.828-5.945,9.828-13.892c0-7.34-3.519-13.649-9.888-13.649
		C251.223,24.66,247.583,30.605,247.583,38.552z"/>
	<path fill="#FFFFFF" d="M284.281,58.873V17.987h10.798l8.493,14.984c2.426,4.307,4.853,9.403,6.673,14.013h0.182
		c-0.607-5.399-0.789-10.919-0.789-17.046V17.987h8.493v40.886h-9.706l-8.735-15.772c-2.426-4.368-5.096-9.646-7.098-14.438
		l-0.182,0.06c0.243,5.399,0.364,11.162,0.364,17.835v12.314h-8.493V58.873z"/>
</g>
</svg>
