<?xml version="1.0" encoding="utf-8"?>
<!-- Generator: Adobe Illustrator 21.1.0, SVG Export Plug-In . SVG Version: 6.00 Build 0)  -->
<svg version="1.1" id="Layer_1" xmlns="http://www.w3.org/2000/svg" xmlns:xlink="http://www.w3.org/1999/xlink" x="0px" y="0px"
	 viewBox="0 0 470 120" style="enable-background:new 0 0 470 120;" xml:space="preserve">
<style type="text/css">
	.st0{fill:#6F7175;}
</style>
<g>
	<g>
		<path class="st0" d="M92.6,37.6c-12.3,0-22.4,10-22.4,22.4s10,22.4,22.4,22.4c12.3,0,22.4-10,22.4-22.4
			C115,47.7,104.9,37.6,92.6,37.6z M92.6,77.7c-9.8,0-17.7-7.9-17.7-17.7s7.9-17.7,17.7-17.7s17.7,7.9,17.7,17.7
			S102.3,77.7,92.6,77.7z"/>
		<path class="st0" d="M207.1,76.3c-1.5,0-2.9-0.3-4.3-0.9l-0.1,0c-1.4-0.6-2.9-1-4.5-1c-1.9,0-3.8,0.5-5.4,1.4l-2-2.9l0.5-0.8l0,0
			l9-12.9l-2.8-4l0,0c-0.8-1.1-1.2-2.4-1.2-3.8c0-3.5,2.9-6.4,6.4-6.4c3.5,0,6.4,2.9,6.4,6.4c0,1.4-0.4,2.7-1.2,3.8l-2.8,4l4.9,7.1
			l-3.2,2.2l-4.1-5.9l-5.5,7.9l0.4,0c0.2,0,0.4,0,0.6,0c2.1,0,4.2,0.4,6.1,1.3l0.1,0.1c0.8,0.3,1.7,0.5,2.6,0.5c2.1,0,4.1-1,5.4-2.6
			l2.3,3.3C212.7,75.1,210,76.3,207.1,76.3z M202.7,55.9l2-2.9c0.3-0.4,0.5-1,0.5-1.5c0-1.4-1.1-2.5-2.5-2.5c-1.4,0-2.5,1.1-2.5,2.5
			c0,0.5,0.2,1.1,0.5,1.5l0,0L202.7,55.9z"/>
		<path class="st0" d="M53.1,57c2.1-1.7,3.5-4.3,3.5-7.2c0-6.1-5-11.1-11.1-11.1l-16.6,0c0,0,0.8,1.3,0.8,5.6l0,31.5
			c0,4.3-0.8,5.6-0.8,5.6l16.6,0c7.6,0,13.7-6.2,13.7-13.8C59.3,62.9,56.8,59,53.1,57z M45.6,76.6l-11,0V43.4h11
			c3.5,0,6.4,2.9,6.4,6.4c0,3.3-2,6.3-5.1,7.6l-1.1,0.5l1.2,0.2c4.5,0.9,7.7,4.9,7.7,9.4C54.7,72.5,50.6,76.6,45.6,76.6z"/>
		<path class="st0" d="M168.2,38.7c0,0,0.2,2.2-1.4,6l-11.7,27.2l-11.7-27.2c-1.6-3.8-1.4-6-1.4-6H136l9.9,22.9l-4.4,10.2
			l-11.7-27.2c-1.6-3.8-1.4-6-1.4-6h-5.9l19.1,44.2l6.8-15.7l6.8,15.7l19.1-44.2L168.2,38.7L168.2,38.7z"/>
		<path class="st0" d="M252.7,38.7h-11.9c0,0,0.8,1.3,0.8,5.6l0,31.5c0,4.3-0.8,5.6-0.8,5.6l12.3,0v0c11.6-0.2,20.9-9.7,20.9-21.3
			C273.9,48.3,264.4,38.7,252.7,38.7z M252.7,76.6h-6.4V43.4h6.4c9.2,0,16.6,7.5,16.6,16.6S261.8,76.6,252.7,76.6z"/>
		<path class="st0" d="M316.4,81.2c0-7.6-3.3-14.3-8.5-19.1c3.1-2.2,5.3-5.8,5.6-9.9c0,0,0-0.1,0-0.1c0-0.2,0-0.4,0-0.7
			c0,0,0-0.1,0-0.1l0,0v0c0-7-5.7-12.6-12.6-12.6v0h-14.2c0,0,0.8,1.3,0.8,5.6v31.5c0,4.3-0.8,5.6-0.8,5.6h6.4c0,0-0.8-1.3-0.8-5.6
			V43.4l8.7,0c4.4,0,8,3.6,8,8c0,0,0,0,0,0.1c0,0.3,0,0.6,0,0.9c0,0,0,0.1,0,0.1c0,0.3-0.1,0.6-0.1,0.9c0,0,0,0,0,0.1
			c-0.8,4.1-4.1,7.4-8.3,8.1c1.1,0.7,2.2,1.4,3.2,2.2c0.1,0.1,0.3,0.2,0.4,0.4c4.1,3.6,6.9,8.7,7.6,14.5c0.2,2-0.2,2.7-0.2,2.7h0.4
			l0,0L316.4,81.2C316.4,81.3,316.5,81.3,316.4,81.2L316.4,81.2z"/>
		<path class="st0" d="M366.2,81.3l-19.1-44.2L328,81.3l5.9,0c0,0-0.2-2.2,1.4-6l1.3-3h20.9l1.3,3c1.7,3.8,1.4,6,1.4,6L366.2,81.3z
			 M338.7,67.6l8.4-19.5l8.4,19.5H338.7z"/>
		<path class="st0" d="M391.6,38.7l-13.3,0c0,0,0.8,1.3,0.8,5.6l0,31.5c0,4.3-0.8,5.6-0.8,5.6l6.4,0c0,0-0.8-1.3-0.8-5.6V65.4h7.8
			c7.4,0,13.3-6,13.3-13.3C404.9,44.7,398.9,38.7,391.6,38.7z M391.6,60.7h-7.8V43.4h8.3c4.6,0.3,8.2,4.1,8.2,8.7
			C400.2,56.8,396.4,60.7,391.6,60.7z"/>
		<path class="st0" d="M417.1,38.7c0,0,0.8,1.3,0.8,5.6l0,31.5c0,4.3-0.8,5.6-0.8,5.6H441v-5.5c0,0-1.3,0.8-5.6,0.8l-12.8,0V62.3
			h7.4c4.3,0,5.6,0.9,5.6,0.9v-6.4c0,0-1.3,0.8-5.6,0.8l-7.4,0V43.4h12.8c4.3,0,5.6,0.8,5.6,0.8v-5.5L417.1,38.7z"/>
	</g>
</g>
</svg>
