<?xml version="1.0" encoding="utf-8"?>
<!-- Generator: Adobe Illustrator 22.1.0, SVG Export Plug-In . SVG Version: 6.00 Build 0)  -->
<svg version="1.1" id="Layer_1" xmlns="http://www.w3.org/2000/svg" xmlns:xlink="http://www.w3.org/1999/xlink" x="0px" y="0px"
	 viewBox="0 0 489.3 250" style="enable-background:new 0 0 489.3 250;" xml:space="preserve">
<style type="text/css">
	.st0{fill:#6F7175;}
</style>
<g>
	<path class="st0" d="M162.9,94.9l-34.1,0.8l2.3-34.1l-17.4,0.5l-6.2,87l17.6-0.5l2.6-37.1l34.1-0.8l-2.6,37.2l17.4-0.4l6.1-87.1
		l-17.5,0.4L162.9,94.9z"/>
	<path class="st0" d="M220.2,81.9c-9.6-0.3-19.6,3.7-26.3,10.6c-7.4,7.7-10.9,16.8-10.4,27.4c0.6,13.4,7.3,22.6,19.3,26.4
		c4,1.3,7.6,1.6,11.4,1.6h2.1c13.9-0.3,24.8-13.2,25.3-13.7l1.5-1.8l-11.5-9.1l-1.4,1.9c-0.1,0.1-5.7,7.8-12.7,7.9
		c-6.7,0.5-11.2-1.1-14.5-5.1c-1.4-1.6-2.4-4.3-2.8-6.4l44.3-1.2c0,0,0.2-0.6,0.5-2.2c2.1-11.5,0.4-20.1-5.9-27.7
		C234.6,85.3,227.9,82.1,220.2,81.9L220.2,81.9z M201,109.1c1.8-5.6,9.1-12.8,16.2-12.8h0.5c3.6,0,6.7,1.3,9.1,3.8
		c1.9,2.1,3,5.6,3.2,8.3L201,109.1z"/>
	<path class="st0" d="M357.2,101.9c-2.4-11.9-9.7-17.4-15.4-19.9c-9.7-4.3-22.8-3.3-32.4,2.4c-10,5.9-15.9,15.3-17.2,27.8v0.1
		c-0.5,10.3,1.9,18.1,7.4,24.1c5.6,6,12.8,9,21.9,9c1.7,0,3.6-0.1,5.4-0.3c7.6-0.9,13.9-3.7,19-8.4
		C356.2,127,359.9,115.4,357.2,101.9L357.2,101.9z M310.6,104.8c2.8-6.7,9-10.9,16-10.9c0.5,0,1,0,1.5,0.1c8.6,0.8,13.4,6,13.4,14.9
		c0,0.6-0.1,1.3-0.1,1.9c0,0.3-0.1,0.8-0.1,1.1c-0.2,4.9-1.6,8.9-4.1,12.2c-4.2,5.5-12,8-19,5.9c-4.6-1.4-7.6-4.3-8.9-9.2
		C307.9,115.5,308.4,110.1,310.6,104.8L310.6,104.8z"/>
	<path class="st0" d="M293.8,80.1c-0.3,0-9.5-1.2-15.9,1.2c-2.9,1.1-5.7,3.1-8,5.1l0.3-4.3h-2.5c0,0-8.2,0.1-11.8,0.2H254l-4.5,63.4
		l16.7-0.4l0.9-11.4c0.5-7.6,1.1-15,1.6-22.6c0.1-1.4,0.3-2.7,0.6-4c1.5-6.4,7.6-11.7,13.5-11.9c5.4-0.1,9.8,1.7,9.8,1.7L293.8,80.1
		z"/>
	<path class="st0" d="M377.2,125.4c-1.9-2.2-4.7-3.3-8-3.2c-6.3,0.2-11.5,5.1-12.2,11.1c-0.3,3,0.5,5.8,2.5,7.9
		c1.9,2.1,4.6,3.2,7.7,3.2h0.3c6.2-0.1,11.7-5.2,12.2-11.1C380,130.4,379.2,127.6,377.2,125.4z"/>
</g>
</svg>
