<?xml version="1.0" encoding="utf-8"?>
<!-- Generator: Adobe Illustrator 21.1.0, SVG Export Plug-In . SVG Version: 6.00 Build 0)  -->
<svg version="1.1" id="Layer_1" xmlns="http://www.w3.org/2000/svg" xmlns:xlink="http://www.w3.org/1999/xlink" x="0px" y="0px"
	 viewBox="0 0 360 120" enable-background="new 0 0 360 120" xml:space="preserve">
<g>
	<path fill="#6F7175" d="M54.111,44.011v2.073c0,5.969-1.824,9.783-5.886,11.69c4.891,1.907,6.798,6.301,6.798,12.436v4.725
		c0,8.954-4.726,13.763-13.846,13.763H26.836V30.663h13.762C50.049,30.663,54.111,35.057,54.111,44.011z M35.955,38.954v15.338
		h3.565c3.399,0,5.472-1.492,5.472-6.135v-3.234c0-4.145-1.409-5.969-4.643-5.969C40.349,38.954,35.955,38.954,35.955,38.954z
		 M35.955,62.582v17.825h5.223c3.068,0,4.726-1.409,4.726-5.721v-5.058c0-5.389-1.741-7.047-5.886-7.047h-4.063V62.582z"/>
	<path fill="#6F7175" d="M67.933,30.663v44.769c0,4.145,1.824,5.637,4.726,5.637s4.726-1.492,4.726-5.637V30.663h8.622v44.189
		c0,9.285-4.643,14.591-13.597,14.591s-13.596-5.306-13.596-14.591V30.663H67.933z"/>
	<path fill="#6F7175" d="M117.305,67.059v7.71c0,9.286-4.643,14.592-13.596,14.592c-8.954,0-13.597-5.306-13.597-14.592V44.591
		c0-9.285,4.643-14.591,13.597-14.591s13.596,5.306,13.596,14.591v5.637h-8.622V44.01c0-4.145-1.824-5.721-4.725-5.721
		c-2.902,0-4.726,1.575-4.726,5.721v31.338c0,4.145,1.824,5.638,4.726,5.638c2.901,0,4.725-1.492,4.725-5.638v-8.29L117.305,67.059
		L117.305,67.059z"/>
	<path fill="#6F7175" d="M133.257,65.566l-2.819,5.306v17.825h-9.119V30.663h9.119v25.286l12.104-25.286h8.954L138.812,56.53
		l12.685,32.167h-9.368L133.257,65.566z"/>
	<path fill="#6F7175" d="M187.811,71.867l6.218-41.204h12.684v58.034h-8.622V47.078l-6.301,41.619h-8.622l-6.798-41.038v41.038
		h-7.959V30.663h12.685L187.811,71.867z"/>
	<path fill="#6F7175" d="M242.099,88.697h-9.203l-1.575-10.529h-11.192l-1.575,10.529h-8.373l9.285-58.034h13.348L242.099,88.697z
		 M221.29,70.292h8.788l-4.394-29.348L221.29,70.292z"/>
	<path fill="#6F7175" d="M257.704,30c8.871,0,13.431,5.306,13.431,14.591v2.238h-8.622V44.01c0-4.145-1.658-5.721-4.56-5.721
		c-2.901,0-4.56,1.575-4.56,5.721c0,11.938,17.824,14.177,17.824,30.758c0,9.286-4.643,14.592-13.596,14.592
		s-13.596-5.306-13.596-14.592v-3.979h8.622v4.56c0,4.145,1.824,5.638,4.726,5.638s4.726-1.492,4.726-5.638
		c0-11.938-17.825-14.177-17.825-30.758C244.273,35.306,248.833,30,257.704,30z"/>
	<path fill="#6F7175" d="M274.75,44.591c0-9.285,4.891-14.591,13.846-14.591c8.954,0,13.845,5.306,13.845,14.591v30.178
		c0,9.286-4.891,14.592-13.845,14.592s-13.846-5.306-13.846-14.592V44.591z M283.87,75.349c0,4.145,1.824,5.72,4.726,5.72
		c2.901,0,4.725-1.575,4.725-5.72V44.011c0-4.145-1.824-5.721-4.725-5.721c-2.902,0-4.726,1.575-4.726,5.721V75.349z"/>
	<path fill="#6F7175" d="M314.953,46.664v42.033h-8.208V30.663h11.441l9.368,34.738V30.663h8.125v58.034h-9.368L314.953,46.664z"/>
</g>
</svg>
