<?xml version="1.0" encoding="utf-8"?>
<!-- Generator: Adobe Illustrator 21.1.0, SVG Export Plug-In . SVG Version: 6.00 Build 0)  -->
<svg version="1.1" id="Layer_1" xmlns="http://www.w3.org/2000/svg" xmlns:xlink="http://www.w3.org/1999/xlink" x="0px" y="0px"
	 viewBox="0 0 360 120" enable-background="new 0 0 360 120" xml:space="preserve">
<path fill="#FFEB7B" d="M46.213,91c-6.866,0-13.21-2.236-18.348-6.016h36.693C59.421,88.764,53.075,91,46.213,91"/>
<path fill="#F05F32" d="M46.213,29c13.029,0,24.173,8.044,28.761,19.432H17.451C22.036,37.044,33.179,29,46.213,29"/>
<path fill="#F1963D" d="M77.211,60c0,0.154-0.007,0.308-0.012,0.463H15.223c0-0.156-0.012-0.309-0.012-0.463
	c0-3.739,0.664-7.324,1.879-10.642h58.246C76.549,52.676,77.211,56.261,77.211,60"/>
<path fill="#FDBF21" d="M72.349,76.657H20.072c-2.841-4.448-4.578-9.663-4.825-15.27h61.928
	C76.927,66.994,75.188,72.209,72.349,76.657"/>
<path fill="#FFDA3E" d="M65.753,84.059H26.667c-2.289-1.862-4.303-4.043-5.984-6.477H71.74
	C70.059,80.015,68.041,82.197,65.753,84.059"/>
<g>
	<path fill="#4B5362" d="M130.391,50.808c-2.366-1.47-4.955-2.205-7.767-2.205c-1.407,0.064-2.766,0.272-4.075,0.623
		c-1.311,0.352-2.445,0.944-3.404,1.774c-1.15-0.959-2.43-1.597-3.836-1.918c-1.407-0.319-2.845-0.48-4.316-0.48
		c-2.749,0.129-5.259,0.928-7.527,2.397c-2.27,1.471-3.404,4.379-3.404,8.726v14.959h6.712V58.383c0-1.535,0.446-2.652,1.343-3.356
		c0.894-0.702,1.918-1.055,3.068-1.055c1.151,0,2.189,0.352,3.116,1.055c0.926,0.704,1.39,1.822,1.39,3.356v16.301h6.617V58.383
		c0-1.535,0.463-2.652,1.39-3.356c0.926-0.702,1.966-1.055,3.116-1.055s2.189,0.352,3.116,1.055c0.926,0.704,1.39,1.822,1.39,3.356
		v13.041c0,0.959,0.303,1.743,0.911,2.349c0.607,0.609,1.39,0.911,2.349,0.911h3.356v-14.96
		C133.939,55.251,132.755,52.279,130.391,50.808z"/>
	<path fill="#4B5362" d="M154.962,50.424c-1.791-1.213-4.475-1.822-8.055-1.822c-3.197,0-5.658,0.736-7.384,2.205
		c-1.535,1.28-2.43,2.91-2.685,4.891h6.424c0.319-0.702,0.83-1.182,1.535-1.438c0.702-0.255,1.501-0.383,2.398-0.383
		c0.83,0,1.741,0.144,2.733,0.432c0.99,0.288,1.486,0.911,1.486,1.87c0,1.279-1.407,2.11-4.219,2.493
		c-0.575,0.064-1.087,0.144-1.535,0.24c-0.448,0.096-0.831,0.144-1.15,0.144c-2.43,0.383-4.427,1.15-5.993,2.301
		c-1.567,1.15-2.349,3.068-2.349,5.753c0,2.876,0.863,4.938,2.589,6.184c1.726,1.247,3.74,1.87,6.041,1.87
		c1.151,0,2.477-0.081,3.979-0.24c1.501-0.16,2.925-0.591,4.267-1.295c1.278-0.638,2.38-1.678,3.308-3.116
		c0.926-1.438,1.39-3.435,1.39-5.993v-8.726C157.743,53.492,156.815,51.703,154.962,50.424z M151.51,64.232
		c0,1.791-0.512,3.197-1.535,4.219c-1.023,1.023-2.43,1.535-4.219,1.535c-1.087,0-1.918-0.255-2.493-0.767
		c-0.575-0.575-0.863-1.343-0.863-2.301c0-0.702,0.224-1.406,0.671-2.11c0.511-0.511,1.343-0.926,2.493-1.247l2.206-0.48
		c1.597-0.383,2.844-0.799,3.74-1.247V64.232z"/>
	<path fill="#4B5362" d="M168.074,49.848c-1.63,0.448-3.053,1.15-4.267,2.11c-1.28,1.023-2.287,2.382-3.021,4.076
		c-0.736,1.694-1.103,3.788-1.103,6.281v12.37h6.712V61.548c0-1.918,0.446-3.324,1.343-4.219c0.894-0.895,2.269-1.343,4.123-1.343
		h2.206v-6.809h-0.959C171.382,49.178,169.704,49.402,168.074,49.848z"/>
	<path fill="#4B5362" d="M180.729,41.698h-3.452v5.274h6.712v-2.013c0-0.894-0.321-1.662-0.959-2.301
		C182.391,42.018,181.624,41.698,180.729,41.698z"/>
	<path fill="#4B5362" d="M180.729,49.178h-3.452v25.506h6.712V52.438c0-0.894-0.321-1.662-0.959-2.301
		C182.391,49.498,181.624,49.178,180.729,49.178z"/>
	<path fill="#4B5362" d="M205.922,50.808c-2.366-1.47-4.955-2.205-7.767-2.205c-2.749,0.129-5.259,0.928-7.527,2.397
		c-2.27,1.471-3.404,4.379-3.404,8.726v14.959h6.712V58.383c0-1.535,0.446-2.652,1.343-3.356c0.894-0.702,1.918-1.055,3.068-1.055
		c1.151,0,2.189,0.352,3.116,1.055c0.926,0.704,1.39,1.822,1.39,3.356v13.041c0,0.959,0.303,1.743,0.911,2.349
		c0.607,0.609,1.39,0.911,2.349,0.911h3.356v-14.96C209.47,55.251,208.286,52.279,205.922,50.808z"/>
	<path fill="#4B5362" d="M222.437,48.602c-3.643,0-6.489,1.184-8.534,3.548c-1.982,2.301-2.973,5.498-2.973,9.589
		c0,4.284,1.022,7.575,3.068,9.877c2.045,2.366,4.891,3.548,8.534,3.548c3.004,0,5.498-0.734,7.479-2.205
		c1.981-1.406,3.324-3.452,4.028-6.137h-4.794c-0.767,0-1.359,0.16-1.774,0.48c-0.417,0.321-0.656,0.575-0.719,0.767
		c-0.192,0.192-0.369,0.369-0.528,0.528c-0.161,0.16-0.335,0.272-0.528,0.335c-0.767,0.448-1.694,0.671-2.781,0.671
		c-1.663,0-2.91-0.511-3.74-1.535c-0.896-0.959-1.375-2.429-1.438-4.411h16.589c0.063-0.127,0.096-0.351,0.096-0.671V61.93
		c0-4.219-1.024-7.511-3.068-9.877C229.246,49.753,226.273,48.602,222.437,48.602z M217.739,59.342
		c0.063-1.662,0.542-2.94,1.438-3.836c0.895-0.894,2.045-1.343,3.452-1.343c1.534,0,2.717,0.448,3.548,1.343
		c0.767,0.831,1.214,2.11,1.343,3.836H217.739z"/>
	<path fill="#4B5362" d="M250.246,41.698h-3.452v32.986h6.712V44.862c0-0.894-0.321-1.645-0.959-2.253
		C251.907,42.002,251.14,41.698,250.246,41.698z"/>
	<path fill="#4B5362" d="M275.822,50.424c-1.791-1.213-4.475-1.822-8.054-1.822c-3.197,0-5.658,0.736-7.384,2.205
		c-1.535,1.28-2.43,2.91-2.685,4.891h6.424c0.319-0.702,0.83-1.182,1.535-1.438c0.702-0.255,1.501-0.383,2.398-0.383
		c0.83,0,1.741,0.144,2.733,0.432c0.99,0.288,1.486,0.911,1.486,1.87c0,1.279-1.407,2.11-4.219,2.493
		c-0.575,0.064-1.087,0.144-1.535,0.24c-0.448,0.096-0.831,0.144-1.151,0.144c-2.43,0.383-4.427,1.15-5.993,2.301
		c-1.567,1.15-2.349,3.068-2.349,5.753c0,2.876,0.863,4.938,2.589,6.184c1.726,1.247,3.74,1.87,6.041,1.87
		c1.15,0,2.477-0.081,3.979-0.24c1.501-0.16,2.925-0.591,4.267-1.295c1.278-0.638,2.38-1.678,3.308-3.116
		c0.926-1.438,1.39-3.435,1.39-5.993v-8.726C278.602,53.492,277.675,51.703,275.822,50.424z M272.369,64.232
		c0,1.791-0.512,3.197-1.535,4.219c-1.023,1.023-2.43,1.535-4.219,1.535c-1.087,0-1.918-0.255-2.493-0.767
		c-0.575-0.575-0.863-1.343-0.863-2.301c0-0.702,0.224-1.406,0.671-2.11c0.511-0.511,1.343-0.926,2.493-1.247l2.205-0.48
		c1.597-0.383,2.844-0.799,3.74-1.247L272.369,64.232C272.369,64.232,272.369,64.232,272.369,64.232z"/>
	<path fill="#4B5362" d="M295.648,51.479l-4.506,15.726l-5.178-18.027h-7.384l8.917,25.411c0.446,1.343,0.303,2.316-0.432,2.925
		c-0.736,0.607-1.743,0.911-3.021,0.911h-1.822v5.274c0.192,0,0.432,0.015,0.719,0.048c0.288,0.032,0.528,0.079,0.72,0.144h1.343
		c2.62,0,4.507-0.383,5.658-1.151c1.15-0.896,2.11-2.397,2.876-4.506l9.781-29.054h-4.603
		C297.054,49.178,296.031,49.945,295.648,51.479z"/>
	<path fill="#4B5362" d="M315.401,48.602c-3.644,0-6.489,1.184-8.534,3.548c-1.982,2.301-2.973,5.498-2.973,9.589
		c0,4.284,1.021,7.575,3.068,9.877c2.045,2.366,4.891,3.548,8.534,3.548c3.004,0,5.498-0.734,7.479-2.205
		c1.981-1.406,3.324-3.452,4.028-6.137h-4.794c-0.767,0-1.359,0.16-1.774,0.48c-0.416,0.321-0.656,0.575-0.72,0.767
		c-0.192,0.192-0.369,0.369-0.527,0.528c-0.161,0.16-0.335,0.272-0.528,0.335c-0.767,0.448-1.694,0.671-2.781,0.671
		c-1.663,0-2.91-0.511-3.74-1.535c-0.896-0.959-1.375-2.429-1.438-4.411h16.589c0.063-0.127,0.096-0.351,0.096-0.671V61.93
		c0-4.219-1.023-7.511-3.068-9.877C322.209,49.753,319.237,48.602,315.401,48.602z M310.703,59.342
		c0.063-1.662,0.543-2.94,1.438-3.836c0.894-0.894,2.045-1.343,3.452-1.343c1.535,0,2.717,0.448,3.548,1.343
		c0.767,0.831,1.213,2.11,1.343,3.836H310.703z"/>
	<path fill="#4B5362" d="M343.831,49.178c-1.726,0-3.404,0.224-5.034,0.671c-1.63,0.448-3.053,1.15-4.267,2.11
		c-1.28,1.023-2.287,2.382-3.021,4.076c-0.736,1.694-1.103,3.788-1.103,6.281v12.369h6.712V61.548c0-1.918,0.446-3.324,1.343-4.219
		c0.894-0.895,2.269-1.343,4.123-1.343h2.206v-6.809L343.831,49.178L343.831,49.178z"/>
</g>
</svg>
