<?xml version="1.0" encoding="utf-8"?>
<!-- Generator: Adobe Illustrator 22.0.1, SVG Export Plug-In . SVG Version: 6.00 Build 0)  -->
<svg version="1.1" id="Layer_1" xmlns="http://www.w3.org/2000/svg" xmlns:xlink="http://www.w3.org/1999/xlink" x="0px" y="0px"
	 viewBox="0 0 386 76" enable-background="new 0 0 386 76" xml:space="preserve">
<g>
	<path fill="#C7BF91" d="M228.015,15.78c6.059,0,12.118,0,18.171,0c0.164,0.802,0.164,0.828-0.526,0.842
		c-1.143,0.022-2.286,0.006-3.622,0.006c3.631,10.653,7.218,21.174,10.804,31.694c0.08,0.008,0.16,0.016,0.24,0.024
		c0.581-1.614,1.172-3.225,1.741-4.843c1.42-4.038,2.846-8.074,4.223-12.127c0.163-0.48,0.181-1.104,0.025-1.582
		c-1.353-4.14-2.773-8.258-4.142-12.394c-0.2-0.605-0.521-0.818-1.128-0.778c-0.589,0.039-1.191,0.063-1.771-0.018
		c-0.239-0.033-0.437-0.358-0.653-0.55c0.066-0.086,0.132-0.171,0.198-0.257c5.907,0,11.815,0,17.718,0
		c0.121,0.794,0.121,0.819-0.568,0.827c-1.513,0.016-3.025,0.005-4.811,0.005c3.662,10.706,7.269,21.253,10.995,32.149
		c3.799-10.853,7.491-21.399,11.253-32.145c-1.536,0-2.92,0.029-4.302-0.023c-0.301-0.011-0.591-0.311-0.886-0.477
		c0.293-0.126,0.586-0.361,0.88-0.363c3.361-0.026,6.722-0.016,10.082-0.016c0.066,0.104,0.132,0.208,0.198,0.311
		c-0.239,0.189-0.47,0.527-0.719,0.54c-1.107,0.06-2.219,0.056-3.328,0.016c-0.605-0.022-0.923,0.162-1.134,0.764
		c-3.461,9.854-6.945,19.7-10.426,29.547c-1.512,4.278-3.049,8.548-4.522,12.84c-0.251,0.73-0.611,0.921-1.339,0.957
		c-0.775,0.038-0.936-0.414-1.121-0.951c-2.314-6.697-4.627-13.394-6.943-20.091c-0.854-2.471-1.715-4.939-2.695-7.759
		c-0.426,1.127-0.752,1.945-1.046,2.775c-2.959,8.347-5.919,16.694-8.855,25.049c-0.221,0.63-0.451,1-1.215,0.974
		c-0.696-0.023-1.003-0.244-1.234-0.924c-3.253-9.612-6.544-19.21-9.822-28.813c-1.527-4.472-3.057-8.943-4.557-13.424
		c-0.235-0.702-0.578-1.005-1.349-0.953c-1.068,0.073-2.146,0.059-3.216,0.005c-0.288-0.015-0.561-0.31-0.841-0.477
		C227.854,16.02,227.935,15.9,228.015,15.78z"/>
	<path fill="#C7BF91" d="M346.297,38.536c0,6.488,0,12.944,0,19.532c1.838,0,3.631,0,5.413,0c0.062,0.925,0.062,0.937-0.838,0.938
		c-4.289,0.005-8.578,0.004-12.867,0.004c-1.775,0-3.55,0.016-5.324-0.019c-0.256-0.005-0.508-0.249-0.762-0.382
		c0.263-0.163,0.521-0.458,0.789-0.467c1.508-0.046,3.018-0.022,4.629-0.022c0-13.859,0-27.615,0-41.491
		c-1.561,0-3.068,0.022-4.573-0.019c-0.284-0.008-0.561-0.267-0.841-0.411c0.276-0.148,0.549-0.417,0.828-0.424
		c1.7-0.041,3.401-0.008,5.102-0.025c4.21-0.041,8.421-0.162,12.63-0.125c3.855,0.034,7.638,0.551,11.209,2.171
		c5.574,2.529,7.768,8.728,4.805,13.863c-1.518,2.631-4.009,4.067-6.762,5.094c-3.87,1.445-7.903,1.755-11.99,1.651
		c-0.369-0.009-0.739,0.001-1.108,0.012C346.568,38.419,346.5,38.463,346.297,38.536z M346.24,37.797
		c2.216-0.281,4.25-0.377,6.202-0.827c2.581-0.596,4.226-2.369,4.862-4.936c0.839-3.387,0.823-6.798-0.172-10.158
		c-0.489-1.652-1.305-3.156-2.847-4.077c-1.931-1.153-4.081-1.463-6.274-1.26c-1.776,0.165-1.768,0.256-1.768,2.072
		c-0.001,5.834-0.001,11.668-0.002,17.501C346.24,36.547,346.24,36.982,346.24,37.797z"/>
	<path fill="#C7BF91" d="M196.114,59.14c0-4.651,0-9.044,0-13.429c0.934-0.269,0.948-0.269,1.144,0.659
		c0.652,3.093,1.943,5.876,4.011,8.279c2.987,3.473,6.788,4.743,11.295,4.297c3.173-0.314,5.877-1.412,7.749-4.093
		c1.362-1.95,1.922-4.136,1.568-6.504c-0.342-2.289-1.791-3.886-3.77-4.747c-2.728-1.187-5.629-1.967-8.415-3.031
		c-2.54-0.97-5.215-1.779-7.499-3.195c-6.382-3.957-6.981-13.501-1.328-18.463c4.757-4.175,10.208-4.985,16.152-3.225
		c1.095,0.324,2.146,0.791,3.236,1.132c1.054,0.33,2.097,0.54,2.804-0.71c0.128-0.227,0.585-0.268,1.006-0.443
		c0,3.984,0,7.778,0,11.571c-0.088,0.067-0.175,0.133-0.263,0.2c-0.248-0.283-0.587-0.526-0.727-0.854
		c-0.725-1.695-1.305-3.458-2.106-5.115c-3.707-7.678-13.015-6.773-16.998-3.139c-3.208,2.927-3.543,7.821,0.98,10.306
		c2.62,1.44,5.577,2.272,8.393,3.348c2.511,0.96,5.134,1.682,7.542,2.851c9.483,4.606,7.649,15.238,2.736,20.013
		c-4.852,4.715-10.706,5.761-17.121,4.515c-2.133-0.414-4.218-1.068-6.339-1.55c-1.115-0.253-2.29-0.536-2.955,0.906
		C197.112,58.933,196.609,58.961,196.114,59.14z"/>
	<path fill="#C7BF91" d="M288.427,58.119c1.596,0,2.989-0.026,4.38,0.019c0.328,0.011,0.649,0.259,0.973,0.398
		c-0.305,0.158-0.608,0.45-0.915,0.453c-3.217,0.033-6.435,0.03-9.652,0.002c-0.292-0.002-0.582-0.245-0.873-0.375
		c0.295-0.166,0.583-0.459,0.886-0.476c1.032-0.059,2.072-0.066,3.104-0.004c0.783,0.047,1.17-0.229,1.472-0.972
		c3.999-9.839,8.033-19.664,12.06-29.492c1.733-4.231,3.471-8.46,5.205-12.69c0.208-0.508,0.342-0.964,1.11-0.981
		c0.807-0.018,1.095,0.366,1.361,0.984c3.213,7.458,6.434,14.913,9.659,22.366c2.871,6.636,5.758,13.265,8.613,19.907
		c0.271,0.629,0.594,0.91,1.307,0.874c1.18-0.059,2.367-0.034,3.549,0.012c0.252,0.01,0.495,0.261,0.743,0.4
		c-0.229,0.154-0.458,0.443-0.688,0.444c-6.472,0.018-12.943,0.007-19.415-0.002c-0.068,0-0.136-0.047-0.216-0.076
		c-0.317-0.719,0.117-0.793,0.671-0.791c1.548,0.006,3.097,0.002,4.833,0.002c-0.181-0.461-0.298-0.79-0.437-1.11
		c-2.035-4.709-4.092-9.407-6.09-14.132c-0.327-0.773-0.731-1.016-1.554-1.008c-4.068,0.042-8.136,0.041-12.204-0.002
		c-0.854-0.009-1.302,0.21-1.641,1.053C292.662,47.919,290.585,52.888,288.427,58.119z M309.293,40.998
		c-2.369-5.483-4.685-10.845-7.103-16.444c-2.293,5.602-4.488,10.967-6.73,16.444C300.156,40.998,304.639,40.998,309.293,40.998z"/>
	<path fill="#666767" d="M179.901,36.51c5.482,0.719,9.012,4.212,9.552,9.63c0.511,5.131-1.693,9.842-7.175,11.744
		c-2.188,0.759-4.586,1.177-6.903,1.249c-5.725,0.176-11.459,0.064-17.189,0.062c-0.251,0-0.503-0.045-0.823-0.076
		c0-14.445,0-28.844,0-43.318c0.291-0.028,0.573-0.08,0.855-0.079c6.359,0.007,12.72-0.079,19.075,0.066
		c4.568,0.104,8.579,2.466,10.111,6.451c2.366,6.154-0.794,12.655-6.908,14.002C180.358,36.271,180.233,36.357,179.901,36.51z
		 M158.705,37.281c0,6.914,0,13.698,0,20.535c0.301,0.019,0.516,0.044,0.732,0.044c5.436,0.002,10.875,0.093,16.308-0.047
		c1.994-0.051,4.057-0.401,5.946-1.037c8.007-2.698,8.016-12.936,3.426-16.713c-2.136-1.758-4.617-2.687-7.312-2.744
		c-6.173-0.132-12.35-0.086-18.525-0.108C159.103,37.21,158.926,37.253,158.705,37.281z M158.679,17.061c0,6.315,0,12.472,0,18.696
		c0.342,0.026,0.627,0.066,0.912,0.067c5.508,0.007,11.016,0.044,16.523-0.011c1.273-0.013,2.581-0.205,3.809-0.545
		c7.728-2.14,8.255-10.01,5.303-14.257c-1.927-2.773-4.852-3.804-8.061-3.891c-4.654-0.127-9.314-0.05-13.971-0.058
		C161.72,17.058,160.248,17.061,158.679,17.061z"/>
	<path fill="#666767" d="M93.237,57.428c0-14.073,0-27.836,0-41.65c0.488,0,0.841,0,1.248,0c0,14.445,0,28.856,0,43.287
		c-1.152,0.372-1.894,0.023-2.597-0.977C82.567,44.842,73.206,31.624,63.853,18.4c-0.185-0.262-0.395-0.506-0.788-1.005
		c0,14.082,0,27.878,0,41.674c-0.907,0.232-1.364,0.19-1.362-0.846c0.026-13.908,0.018-27.815,0.021-41.723
		c0-0.215,0.026-0.429,0.043-0.684c1.095-0.174,1.896-0.184,2.665,0.912c9.305,13.256,18.678,26.464,28.035,39.683
		C92.65,56.669,92.848,56.915,93.237,57.428z"/>
	<path fill="#666767" d="M126.098,60.148c-8.675,0.032-15.388-4.69-18.276-13.034c-2.609-7.541-2.371-15.038,1.215-22.209
		c3.924-7.845,11.49-10.899,19.365-10.147c9.716,0.929,15.596,8.197,17.216,16.837c1.06,5.653,0.719,11.17-1.427,16.506
		C141.205,55.52,134.701,60.331,126.098,60.148z M126.204,58.817c7.717-0.001,13.604-3.849,16.604-10.976
		c2.209-5.249,2.557-10.709,1.428-16.257c-1.731-8.504-7.39-14.756-16.095-15.468c-7.246-0.593-13.251,1.721-17.099,8.071
		c-4.202,6.935-4.496,14.431-2.092,22.049C111.47,54.223,117.862,58.818,126.204,58.817z"/>
	<path fill="#666767" d="M48.438,27.918c-0.452,0-0.808,0-1.226,0c-0.161-1.118-0.229-2.226-0.488-3.287
		c-1.005-4.127-3.607-6.783-7.694-7.864c-4.686-1.238-9.342-1.122-13.874,0.756c-5.847,2.422-6.551,8.753-4.521,12.553
		c1.092,2.044,2.949,3.238,5.062,3.862c3.909,1.154,7.901,2.021,11.814,3.164c2.496,0.729,5.016,1.524,7.333,2.675
		c2.948,1.465,4.186,4.197,4.429,7.426c0.514,6.837-3.592,10.317-8.239,11.837c-5.295,1.732-10.618,1.645-15.804-0.444
		c-5.295-2.133-7.697-6.358-8.149-11.866c-0.045-0.552-0.031-1.109-0.034-1.663c-0.001-0.105,0.044-0.211,0.083-0.385
		c0.377,0,0.757,0,1.141,0c0.154,1.353,0.208,2.682,0.468,3.97c1.062,5.259,4.326,8.408,9.509,9.551
		c5.021,1.108,9.974,1.015,14.647-1.426c5.82-3.041,6.148-9.841,3.606-13.575c-1.607-2.36-4.097-3.445-6.736-4.137
		c-4.199-1.101-8.443-2.028-12.638-3.143c-2.545-0.676-4.952-1.72-6.753-3.773c-3.347-3.815-2.947-12.121,2.927-15.264
		c3.784-2.025,7.85-2.539,12.024-2.12c1.99,0.2,4.031,0.629,5.877,1.376c4.663,1.888,6.722,5.709,7.169,10.546
		C48.404,27.054,48.411,27.424,48.438,27.918z"/>
</g>
</svg>
