<?xml version="1.0" encoding="utf-8"?>
<!-- Generator: Adobe Illustrator 21.1.0, SVG Export Plug-In . SVG Version: 6.00 Build 0)  -->
<svg version="1.1" id="Layer_1" xmlns="http://www.w3.org/2000/svg" xmlns:xlink="http://www.w3.org/1999/xlink" x="0px" y="0px"
	 viewBox="0 0 317.1 142.3" style="enable-background:new 0 0 317.1 142.3;" xml:space="preserve">
<style type="text/css">
	.st0{fill:#F7323F;}
	.st1{fill:#FFFFFF;}
</style>
<g>
	<rect x="20.9" y="5" class="st0" width="132" height="132.3"/>
	<polyline class="st1" points="46,23.2 69.5,23.2 69.5,55.2 77.7,55.2 77.7,63.6 41.7,63.6 41.7,55.2 61.3,55.2 61.3,31.6 46,31.6 
		46,23.2 	"/>
	<path class="st1" d="M100.1,31.5v-8.3h27.7v8.3H100.1z M96.1,63.5v-8.3H132v8.3H96.1z"/>
	<path class="st1" d="M95.9,78.8v40.3h36.2V78.8H95.9z M123.6,110.9h-19.4V87.2h19.4V110.9z"/>
	<path class="st1" d="M37.5,119.2h31.9l8.2-40.3H45.8l-4.9,23.6h8.4l3.2-15h15.3l-4.9,23.2c-7.9,0-15.7,0-23.6,0L37.5,119.2"/>
	<rect x="164" y="5" class="st0" width="132" height="132.3"/>
	<path class="st1" d="M180.6,23.2h8.4V51c0,3,2.4,5.5,5.5,5.5s5.5-2.4,5.5-5.5V23.2h8.5v28c0,7.6-6.1,13.7-13.7,13.7h-0.5
		c-7.6,0-13.7-6.1-13.7-13.7V23.2"/>
	<polyline class="st1" points="227.8,64.9 219.4,64.9 219.4,23.2 227.8,23.2 239,47 239,23.2 247.2,23.2 247.2,64.9 239,64.9 
		227.8,41.5 227.8,64.9 	"/>
	<rect x="261.1" y="23.2" class="st1" width="8.3" height="41.8"/>
	<path class="st1" d="M265.4,77.4c-7.7,0-14,6.3-14,14v13.7c0,7.7,6.3,14,14,14c7.7,0,14-6.3,14-14V91.4
		C279.4,83.7,273.1,77.4,265.4,77.4z M270.9,105c0,3-2.5,5.5-5.5,5.5s-5.5-2.5-5.5-5.5V91.3c0-3,2.5-5.5,5.5-5.5s5.5,2.5,5.5,5.5
		V105z"/>
	<path class="st1" d="M204.3,115.1c2.5-2.5,4.1-6.1,4.1-9.9V91.5c0-7.7-6.3-14-14-14s-14,6.3-14,14v13.7c0,7.7,6.3,14,14,14
		c0.9,0,1.8-0.1,2.7-0.3l2.9,8.6h8.6L204.3,115.1z M199.9,105c0,3-2.4,5.5-5.5,5.5s-5.5-2.5-5.5-5.5V91.3c0-3,2.4-5.5,5.5-5.5
		s5.5,2.5,5.5,5.5V105z"/>
	<path class="st1" d="M219.3,77.3h8.3v33.5h19.5v8.2c-9.2,0-18.6,0-27.8,0V77.3"/>
</g>
</svg>
