<?xml version="1.0" encoding="utf-8"?>
<!-- Generator: Adobe Illustrator 21.1.0, SVG Export Plug-In . SVG Version: 6.00 Build 0)  -->
<svg version="1.1" id="Layer_1" xmlns="http://www.w3.org/2000/svg" xmlns:xlink="http://www.w3.org/1999/xlink" x="0px" y="0px"
	 viewBox="0 0 630 308" style="enable-background:new 0 0 630 308;" xml:space="preserve">
<style type="text/css">
	.st0{fill:#A99055;}
</style>
<g>
	<path class="st0" d="M248,197.7L248,197.7c8.1-10.8,14.9-21.4,20.3-31.5c6.5,0.1,13.1,0.9,19.2,2.6c-0.2,1.3-0.3,2.6-0.3,4
		c0,13.5,10.9,24.4,24.4,24.4s24.4-10.9,24.4-24.4s-10.9-24.4-24.4-24.4c-10.6,0-19.7,6.8-23,16.3c-2.3-0.6-8.8-1.9-18.1-2.4
		c19.4-37.2,22.1-65.8,22.1-65.8c7.6-82.5-66.7-69.4-66.7-69.4L206,26.2c0,0-8.3-2.6-0.5,10.6c0,0,6.7,12.1,10,8l11-13.3
		C294,25.3,288.7,89,288.7,89c-2.7,28.4-13.2,54.2-23.3,73.3c-13-0.1-29.9,1.8-47.9,9.2c-28.9-21.9-62.8-60.5-43.7-112.7l15.9-6.6
		c5-2-4.6-11.9-4.6-11.9c-10.3-11.3-10.3-2.6-10.3-2.6l-4.9,19.2c0,0-30.6,61.1,43.2,116.6c-0.8,0.4-1.6,0.8-2.4,1.2
		c0,0-67.3,34.1-73,75.9c0,0-8.8,35.5,25,30.7C162.6,281.2,188.2,277.2,248,197.7z M296.4,173.8c0.4,8,7.1,14.3,15.2,14.3
		c8.4,0,15.2-6.8,15.2-15.2c0-8.4-6.8-15.2-15.2-15.2c-5.3,0-9.9,2.7-12.6,6.7c-1.5-0.4-2.8-1-3.7-1.3c3.3-5.5,9.4-9.2,16.3-9.2
		c10.5,0,19,8.5,19,19c0,10.5-8.5,19-19,19c-10.3,0-18.6-8.1-19-18.3C293.9,173.6,295.2,173.7,296.4,173.8z M224.5,173.1
		c0,0,18.3-6.1,38.7-6.7c-6.1,11-11.8,19.4-15.4,24.2c-5.3-2.6-15.2-8.1-26.4-16.1C222.4,173.9,223.5,173.5,224.5,173.1z M153.4,277
		c0,0-18.1,0.2-11-28.5c0,0,5.3-38.9,74.7-72.1c8.2,5.8,17.6,11.6,28.3,17.2c-0.6,0.8-1,1.3-1.2,1.6l0,0c0,0-0.1,0.1-0.1,0.2
		c0,0.1-0.1,0.1-0.1,0.1l0,0C240.3,200.4,176.5,284.4,153.4,277z"/>
	<path class="st0" d="M329.5,238.4c-2.9,1.9-5.1,2.8-6.9,2.8c-2.1,0-3.7-1.1-4.9-3.4c-0.9-1.7-1.3-3.7-1.3-5.8c0-0.6,0.3-2.3,1-5.1
		c0.7-3.1,1.5-5.5,2.1-7.2c0.6-1.5,1.6-3.1,2.9-5c0.8-2.1,0.9-3.6,0.4-4.3c-1.2-1.2-2.2-1.7-3.1-1.7c-0.8,0-1.7,0.8-2.5,2.5
		c-0.4,1-0.9,1.9-1.4,2.9c-0.8-1.5-1.3-3.3-3.4-3.3c-3.5-0.1-8.4,3.2-14.6,9.9c-5.1,5.5-8,10-8.9,13.5c-2.2,1.4-4.4,2.8-6.5,4.2
		c-2.9,1.9-5.2,2.8-6.9,2.8c-2.1,0-3.7-1.1-4.9-3.4c-0.9-1.7-1.3-3.7-1.3-5.8c0-0.6,0.4-2.3,1-5.1c0.7-3.1,1.5-5.5,2.1-7.2
		c0.6-1.5,1.5-3.1,2.9-5c0.8-2.1,0.9-3.6,0.4-4.3c-1.2-1.2-2.2-1.7-3-1.7s-1.7,0.8-2.5,2.5c-0.4,1-0.9,1.9-1.4,2.9
		c-0.7-1.5-1.3-3.3-3.4-3.3c-3.5-0.1-8.4,3.2-14.6,9.9c-6.2,6.7-9.2,12-9.2,15.8c0,1.1,0.4,2.5,1.4,4c1,1.9,2.1,2.8,3,2.8
		c2.9,0,6.2-1.4,9.6-4l8.3-7.5c-0.2,0.8-0.3,1.7-0.3,2.6c0,2.4,0.6,4.9,1.9,7.4c0.4,0.8,1.2,1.7,2.6,2.9c1.5,1.3,2.9,2,4,2
		c0.6,0,1.1,0.3,1.7,0.3c2.3,0,5.6-1.6,9.9-4.7c2.2-1.6,3.8-3.1,5.1-4.5c0.2,0.8,0.6,1.7,1.2,2.8c1,1.9,2,2.8,3,2.8
		c2.9,0,6.2-1.4,9.6-4l8.3-7.5c-0.2,0.8-0.3,1.7-0.3,2.6c0,2.4,0.6,4.9,1.9,7.4c0.4,0.8,1.2,1.7,2.6,2.9c1.5,1.3,2.9,2,4,2
		c0.6,0,1.1,0.3,1.7,0.3c2.3,0,5.6-1.6,9.9-4.7c2.1-1.5,3.7-2.9,4.9-4.2c-0.1,0.2-0.1,0.3-0.1,0.4c0,0.3,0.4,0.8,1.1,1.7
		c0.8,0.9,1.6,1.3,2.2,1.3c0.6,0,2.6-1.1,3.3-1.1c1.2-2.3,3.4-5.5,6.7-9.2c1.7-2,4-4.5,6.9-7.6c-0.1,0.1-0.5,1.8-1.3,5.1
		c-1,3.5-1.3,5.9-1.2,7.3c0.5,6.5,3.2,9.9,8.1,9.9c1.5,0,3.4-1,5.9-3c2.5-2.1,4.2-4,5.1-5.8c0.3-0.6-0.4-0.8-0.8-1.1
		c-5,2.9-8,4.4-8.9,4.4c-2.5,0-3.7-1.7-3.7-4.9c0-1.9,1-5.3,2.9-10.5c2.1-5.2,3.1-8.8,3.1-11.1c0-2.2-0.6-3.3-1.9-3.3
		c-1.9,0-3.8,0.9-6,2.9c-1.3,1.2-3.2,3.4-5.7,6.6c-2.5,3.1-4.4,5.3-5.8,6.6c-0.2-0.2-0.3-0.4-0.3-0.7c0-0.6,0.6-2.7,1.9-5.9
		c1.1-3,1.5-5.2,1.3-6.3c-0.1,0-0.5-0.3-1.3-0.8c-0.6-0.4-1.1-0.6-1.4-0.6c-1.2,0-3.4,1-3.8,2.2c-1,3.4-2.3,8.2-3.8,14.2
		c-0.5,2-0.9,3.7-1.2,5.1C334.3,235.3,332,236.9,329.5,238.4z M263.6,224.5c-0.6,0.8-2.8,3.1-6.7,6.5c-4.4,3.8-6.9,5.7-8,5.7
		c-0.6,0-1.1-0.8-1.4-0.8c0.3-1.6,1.1-3.5,2.6-5.8c1.5-2.3,3.1-4.2,4.5-5.4c1.2-1.2,2.5-2.3,3.7-3.4c2.1-1.7,3.6-2.7,4.6-2.7
		c0.6,0,2.3,0.9,2.8,0.9C265.4,221.3,264.6,222.9,263.6,224.5z M310.7,224.5c-0.6,0.8-2.8,3.1-6.7,6.5c-4.3,3.8-6.9,5.7-8,5.7
		c-0.6,0-1.1-0.8-1.4-0.8c0.3-1.6,1.1-3.5,2.6-5.8c1.5-2.3,3-4.2,4.5-5.4c1.2-1.2,2.5-2.3,3.7-3.4c2-1.7,3.6-2.7,4.6-2.7
		c0.6,0,2.3,0.9,2.8,0.9C312.5,221.3,311.8,222.9,310.7,224.5z"/>
	<path class="st0" d="M381.7,244.1c1.8,0,4-1.5,7.1-4.4c2.4-2.6,4.8-5.1,7.2-7.6c-0.2,0.7-0.3,1.5-0.3,2.4c0,3.1,0.9,5.7,2.8,8.2
		c1.9,2.4,4.4,3.6,7.1,3.6c2.5,0,5.2-1.2,8.2-3.5c1.4-1.2,2.6-2.2,3.5-3.3c0.8,3,2.8,4.6,5.9,4.6c1.7,0,4-1.5,7-4.4
		c2.4-2.6,4.8-5.1,7.2-7.6c-0.2,0.7-0.3,1.5-0.3,2.4c0,3.1,0.9,5.7,2.9,8.2c1.9,2.4,4.3,3.6,7.1,3.6c2.5,0,5.1-1.2,8.2-3.5
		c2.3-1.9,3.9-3.6,5-5.2l-0.3-1.5c-1.1,0.3-3.2,1.2-6.3,2.9c-2.8,1.5-5,2.2-6.5,2.2c-1.4,0-2.6-0.9-3.4-2.9c-0.6-1.5-1-2.7-0.9-3.7
		c0.2-2.7,1.2-6.3,3.1-10.9c1.9-4.6,2.9-6.7,2.9-6.3c0-0.6-0.3-1.4-0.9-2c-1-1.3-1.7-2.1-1.9-2.4c-1.2,0.3-2.4,1.2-3.6,2.8
		c-0.8,1.2-1.5,2.5-2.3,3.8c-2.1,2.9-3.8,4.9-4.8,6.1c-5.6,7.1-9.9,11.2-12.6,12.2c-0.3-0.2-0.3-0.4-0.2-0.6c0.3-3,2.1-7.4,5.1-13.3
		c3-5.7,4.5-8.5,4.5-8.4c0-0.8-0.4-1.9-1.1-3.2c-0.6-1.5-1.3-2.2-2-2.2c-1.3,0-3.6,3.8-7,11.6c-3.3,7.4-5,12.2-5,14.4
		c0,0.2,0,0.4,0,0.6c-1.2,0.5-2.8,1.2-4.8,2.3c-2.8,1.5-5,2.2-6.5,2.2c-1.4,0-2.6-0.9-3.4-2.9c-0.6-1.5-1-2.7-0.9-3.7
		c0.1-2.7,1.2-6.3,3.1-10.9c1.9-4.6,2.9-6.7,2.9-6.3c0-0.6-0.3-1.4-0.9-2c-1-1.3-1.7-2.1-1.9-2.4c-1.2,0.3-2.4,1.2-3.6,2.8
		c-0.8,1.2-1.5,2.5-2.3,3.8c-2.1,2.9-3.8,4.9-4.8,6.1c-5.6,7.1-9.9,11.2-12.6,12.2c-0.3-0.2-0.3-0.4-0.2-0.6c0.3-3,2-7.4,5.1-13.3
		c3-5.7,4.5-8.5,4.5-8.4c0-0.8-0.4-1.9-1.1-3.2c-0.6-1.5-1.4-2.2-2.1-2.2c-1.3,0-3.6,3.8-7,11.6c-3.3,7.4-5,12.2-5,14.4
		C375.4,241.4,377.6,244.1,381.7,244.1z"/>
	<path class="st0" d="M491.7,253.5c-90.6-3.7-173.5,6.5-227.1,15.8c-58.1,10-95.3,21.1-95.7,21.2c-1,0.3-1.5,1.3-1.2,2.2
		c0.3,0.8,1,1.3,1.7,1.3c0.2,0,0.3,0,0.5-0.1c0.4-0.1,37.4-11.2,95.3-21.2c53.4-9.2,136.1-19.5,226.3-15.8c1,0.1,1.8-0.7,1.9-1.7
		C493.5,254.4,492.7,253.5,491.7,253.5z"/>
</g>
</svg>
