<?xml version="1.0" encoding="utf-8"?>
<!-- Generator: Adobe Illustrator 21.1.0, SVG Export Plug-In . SVG Version: 6.00 Build 0)  -->
<svg version="1.1" id="Layer_1" xmlns="http://www.w3.org/2000/svg" xmlns:xlink="http://www.w3.org/1999/xlink" x="0px" y="0px"
	 viewBox="0 0 404 318" style="enable-background:new 0 0 404 318;" xml:space="preserve">
<style type="text/css">
	.st0{fill:#6F7175;}
</style>
<g>
	<path class="st0" d="M147.4,195.8L147.4,195.8c6.6-8.8,12.1-17.5,16.6-25.7c5.3,0.1,10.7,0.7,15.6,2.1c-0.2,1-0.3,2.1-0.3,3.2
		c0,11,8.9,19.9,19.9,19.9c11,0,19.9-8.9,19.9-19.9c0-11-8.9-19.9-19.9-19.9c-8.7,0-16,5.5-18.7,13.3c-1.9-0.5-7.2-1.6-14.8-2
		c15.8-30.3,18-53.7,18-53.7c6.2-67.2-54.4-56.6-54.4-56.6l-16.1-0.7c0,0-6.7-2.1-0.4,8.6c0,0,5.4,9.9,8.2,6.5l9-10.8
		c55-5,50.6,46.9,50.6,46.9c-2.2,23.2-10.8,44.2-19,59.7c-10.6-0.1-24.4,1.5-39,7.5C98.9,156.5,71.3,125,86.9,82.5l13-5.4
		c4.1-1.6-3.8-9.7-3.8-9.7c-8.4-9.2-8.4-2.1-8.4-2.1l-4,15.7c0,0-24.9,49.8,35.2,95c-0.7,0.3-1.3,0.6-2,0.9c0,0-54.9,27.8-59.5,61.9
		c0,0-7.2,29,20.4,25C77.8,263.8,98.6,260.5,147.4,195.8z M186.8,176.3c0.4,6.5,5.7,11.7,12.4,11.7c6.8,0,12.4-5.5,12.4-12.4
		c0-6.8-5.5-12.4-12.4-12.4c-4.3,0-8,2.2-10.3,5.5c-1.3-0.4-2.2-0.8-3-1c2.7-4.5,7.6-7.5,13.3-7.5c8.6,0,15.5,6.9,15.5,15.5
		c0,8.5-6.9,15.5-15.5,15.5c-8.4,0-15.2-6.6-15.5-14.9C184.8,176.1,185.9,176.2,186.8,176.3z M128.2,175.6c0,0,14.9-5,31.5-5.5
		c-5,8.9-9.6,15.8-12.5,19.8c-4.3-2.1-12.4-6.6-21.5-13.1C126.6,176.4,127.4,176,128.2,175.6z M70.3,260.4c0,0-14.7,0.2-8.9-23.2
		c0,0,4.3-31.7,60.9-58.7c6.7,4.8,14.3,9.5,23.1,14c-0.5,0.6-0.8,1.1-1,1.3l0,0c0,0-0.1,0.1-0.1,0.2c0,0.1-0.1,0.1-0.1,0.1l0,0
		C141.1,198,89.1,266.4,70.3,260.4z"/>
	<path class="st0" d="M213.8,228.9c-2.4,1.5-4.2,2.2-5.6,2.2c-1.7,0-3-0.9-4-2.8c-0.7-1.4-1.1-3-1.1-4.8c0-0.5,0.3-1.9,0.8-4.1
		c0.6-2.6,1.2-4.5,1.7-5.9c0.5-1.2,1.3-2.6,2.4-4.1c0.6-1.7,0.7-2.9,0.4-3.5c-1-1-1.8-1.4-2.5-1.4c-0.7,0-1.4,0.7-2,2
		c-0.4,0.8-0.7,1.6-1.2,2.4c-0.6-1.2-1-2.7-2.8-2.7c-2.9-0.1-6.8,2.6-11.9,8.1c-4.1,4.5-6.5,8.2-7.3,11c-1.8,1.2-3.6,2.3-5.3,3.4
		c-2.4,1.5-4.2,2.2-5.6,2.2c-1.7,0-3-0.9-4-2.8c-0.7-1.4-1.1-3-1.1-4.8c0-0.5,0.3-1.9,0.8-4.1c0.6-2.6,1.2-4.5,1.7-5.9
		c0.5-1.2,1.3-2.6,2.4-4.1c0.6-1.7,0.7-2.9,0.4-3.5c-1-1-1.8-1.4-2.5-1.4s-1.4,0.7-2,2c-0.4,0.8-0.7,1.6-1.2,2.4
		c-0.6-1.2-1-2.7-2.8-2.7c-2.9-0.1-6.8,2.6-11.9,8.1c-5,5.5-7.5,9.8-7.5,12.9c0,0.9,0.4,2,1.2,3.3c0.8,1.5,1.7,2.2,2.5,2.2
		c2.4,0,5-1.2,7.8-3.3l6.7-6.1c-0.2,0.7-0.2,1.4-0.2,2.1c0,1.9,0.5,4,1.5,6c0.3,0.7,1,1.4,2.1,2.4c1.3,1.1,2.4,1.6,3.3,1.6
		c0.5,0,0.9,0.3,1.4,0.3c1.9,0,4.6-1.3,8.1-3.9c1.8-1.3,3.1-2.5,4.1-3.7c0.2,0.7,0.5,1.4,1,2.2c0.8,1.5,1.6,2.2,2.5,2.2
		c2.4,0,5-1.2,7.8-3.3l6.7-6.1c-0.2,0.7-0.2,1.4-0.2,2.1c0,1.9,0.5,4,1.5,6c0.3,0.7,1,1.4,2.1,2.4c1.3,1.1,2.4,1.6,3.3,1.6
		c0.5,0,0.9,0.3,1.4,0.3c1.9,0,4.6-1.3,8.1-3.9c1.7-1.2,3-2.4,4-3.4c-0.1,0.2-0.1,0.3-0.1,0.3c0,0.2,0.3,0.7,0.9,1.4
		c0.7,0.7,1.3,1.1,1.8,1.1c0.5,0,2.1-0.9,2.7-0.9c1-1.9,2.8-4.4,5.4-7.5c1.4-1.6,3.3-3.7,5.6-6.2c-0.1,0.1-0.4,1.5-1.1,4.2
		c-0.8,2.9-1,4.8-0.9,6c0.4,5.3,2.6,8,6.6,8c1.2,0,2.8-0.8,4.8-2.5c2-1.7,3.4-3.3,4.1-4.8c0.2-0.5-0.4-0.7-0.7-0.9
		c-4.1,2.4-6.5,3.6-7.3,3.6c-2,0-3-1.4-3-4c0-1.5,0.8-4.3,2.4-8.6c1.7-4.2,2.5-7.2,2.5-9c0-1.8-0.5-2.7-1.6-2.7
		c-1.5,0-3.1,0.7-4.9,2.4c-1,1-2.6,2.8-4.7,5.4c-2,2.6-3.6,4.3-4.8,5.4c-0.2-0.2-0.2-0.4-0.2-0.6c0-0.5,0.5-2.2,1.5-4.8
		c0.9-2.5,1.3-4.2,1.1-5.2c-0.1,0-0.4-0.2-1.1-0.7c-0.5-0.3-0.9-0.5-1.2-0.5c-1,0-2.8,0.8-3.1,1.8c-0.8,2.8-1.9,6.7-3.1,11.6
		c-0.4,1.6-0.7,3-1,4.1C217.8,226.4,215.9,227.6,213.8,228.9z M160.1,217.6c-0.5,0.7-2.2,2.5-5.4,5.3c-3.6,3.1-5.6,4.7-6.5,4.7
		c-0.5,0-0.9-0.7-1.2-0.7c0.2-1.3,0.9-2.9,2.1-4.8c1.3-1.9,2.5-3.4,3.7-4.4c1-1,2-1.9,3-2.8c1.7-1.4,2.9-2.2,3.8-2.2
		c0.5,0,1.9,0.7,2.2,0.7C161.6,214.9,160.9,216.2,160.1,217.6z M198.5,217.6c-0.5,0.7-2.2,2.5-5.4,5.3c-3.5,3.1-5.6,4.7-6.5,4.7
		c-0.5,0-0.9-0.7-1.2-0.7c0.2-1.3,0.9-2.9,2.1-4.8c1.3-1.9,2.5-3.4,3.7-4.4c1-1,2-1.9,3-2.8c1.6-1.4,2.9-2.2,3.8-2.2
		c0.5,0,1.9,0.7,2.2,0.7C199.9,214.9,199.4,216.2,198.5,217.6z"/>
	<path class="st0" d="M256.4,233.5c1.5,0,3.3-1.2,5.7-3.6c1.9-2.1,3.9-4.2,5.9-6.2c-0.2,0.6-0.2,1.3-0.2,1.9c0,2.5,0.7,4.7,2.3,6.7
		c1.6,1.9,3.6,2.9,5.8,2.9c2,0,4.2-1,6.7-2.8c1.2-0.9,2.1-1.8,2.9-2.7c0.6,2.5,2.2,3.7,4.8,3.7c1.4,0,3.3-1.2,5.7-3.6
		c1.9-2.1,3.9-4.2,5.9-6.2c-0.2,0.6-0.2,1.3-0.2,1.9c0,2.5,0.7,4.7,2.4,6.7c1.6,1.9,3.5,2.9,5.8,2.9c2,0,4.2-1,6.7-2.8
		c1.9-1.5,3.2-2.9,4.1-4.2l-0.2-1.2c-0.9,0.3-2.6,1-5.2,2.4c-2.2,1.2-4.1,1.8-5.3,1.8c-1.2,0-2.1-0.7-2.8-2.4
		c-0.5-1.2-0.8-2.2-0.7-3c0.2-2.2,1-5.2,2.6-8.9c1.6-3.8,2.4-5.5,2.4-5.1c0-0.5-0.2-1.2-0.7-1.6c-0.8-1-1.4-1.7-1.6-2
		c-1,0.2-1.9,1-2.9,2.2c-0.7,0.9-1.3,2-1.9,3.1c-1.7,2.4-3.1,4-3.9,5c-4.5,5.7-8,9.1-10.3,9.9c-0.2-0.2-0.2-0.3-0.2-0.5
		c0.2-2.5,1.7-6.1,4.1-10.9c2.5-4.7,3.7-6.9,3.7-6.8c0-0.6-0.3-1.5-0.9-2.6c-0.5-1.2-1.1-1.8-1.6-1.8c-1,0-2.9,3.1-5.7,9.5
		c-2.7,6.1-4.1,10-4.1,11.7c0,0.2,0,0.3,0,0.5c-0.9,0.4-2.2,1-3.9,1.9c-2.2,1.2-4.1,1.8-5.3,1.8c-1.2,0-2.1-0.7-2.8-2.4
		c-0.5-1.2-0.8-2.2-0.7-3c0.1-2.2,0.9-5.2,2.6-8.9c1.6-3.8,2.4-5.5,2.4-5.1c0-0.5-0.2-1.2-0.7-1.6c-0.8-1-1.4-1.7-1.6-2
		c-1,0.2-2,1-2.9,2.2c-0.7,0.9-1.3,2-1.9,3.1c-1.7,2.4-3.1,4-3.9,5c-4.6,5.7-8,9.1-10.3,9.9c-0.2-0.2-0.2-0.3-0.2-0.5
		c0.2-2.5,1.6-6.1,4.1-10.9c2.5-4.7,3.7-6.9,3.7-6.8c0-0.6-0.3-1.5-0.9-2.6c-0.5-1.2-1.2-1.8-1.7-1.8c-1,0-2.9,3.1-5.7,9.5
		c-2.7,6.1-4.1,10-4.1,11.7C251.3,231.4,253,233.5,256.4,233.5z"/>
	<path class="st0" d="M346,241.2c-73.9-3-141.4,5.3-185.1,12.9c-47.4,8.2-77.7,17.2-78,17.3c-0.8,0.2-1.2,1-1,1.8
		c0.2,0.6,0.8,1,1.4,1c0.2,0,0.3,0,0.4-0.1c0.3-0.1,30.5-9.1,77.7-17.2c43.5-7.5,110.9-15.9,184.4-12.9c0.8,0.1,1.5-0.6,1.5-1.4
		C347.5,241.9,346.9,241.2,346,241.2z"/>
</g>
</svg>
