<?xml version="1.0" encoding="utf-8"?>
<!-- Generator: Adobe Illustrator 21.1.0, SVG Export Plug-In . SVG Version: 6.00 Build 0)  -->
<svg version="1.1" id="Layer_1" xmlns="http://www.w3.org/2000/svg" xmlns:xlink="http://www.w3.org/1999/xlink" x="0px" y="0px"
	 viewBox="0 0 360 120" enable-background="new 0 0 360 120" xml:space="preserve">
<g>
	<path d="M99.714,23.056c0,6.876,0,13.753,0,20.765c0.457-0.447,0.838-0.819,1.218-1.192c3.578-3.512,7.929-5.225,12.881-5.56
		c3.055-0.207,6.072-0.029,9.013,0.873c5.249,1.61,8.29,5.231,9.494,10.504c0.442,1.936,0.584,3.901,0.584,5.88
		c0.001,9.043,0,18.085,0,27.128c0,0.169,0,0.338,0,0.55c-3.355,0-6.668,0-10.069,0c0-0.24,0-0.477,0-0.714
		c0-7.675,0.035-15.35-0.024-23.025c-0.015-1.963-0.166-3.955-0.539-5.879c-0.827-4.269-3.054-6.273-7.383-6.681
		c-3.254-0.307-6.441,0.106-9.449,1.504c-2.261,1.051-4.009,2.717-5.544,4.63c-0.144,0.179-0.174,0.49-0.174,0.739
		c-0.008,9.575-0.007,19.149-0.007,28.724c0,0.226,0,0.451,0,0.711c-3.359,0-6.676,0-10.089,0c0-0.263,0-0.52,0-0.777
		c0-19.111,0-38.223-0.002-57.334c0-0.282-0.035-0.564-0.054-0.846C92.95,23.056,96.332,23.056,99.714,23.056z"/>
	<path d="M83.983,23.056c0,3.302,0,6.605,0,9.968c-8.23,0-16.429,0-24.691,0c0,16.349,0,32.637,0,48.974c-3.391,0-6.718,0-10.104,0
		c0-16.311,0-32.602,0-48.967c-0.261,0-0.464,0-0.667,0c-7.77,0-15.539,0-23.309,0.002c-0.206,0-0.412,0.035-0.618,0.054
		c0-3.341,0-6.682,0-10.031C44.39,23.056,64.187,23.056,83.983,23.056z"/>
	<path d="M188.012,63.068c-12.735,0-25.417,0-38.282,0c0.347,1.278,0.583,2.504,1.01,3.661c1.769,4.799,5.376,7.368,10.283,8.296
		c3.468,0.655,6.844,0.392,10.065-1.122c2.135-1.003,3.849-2.48,4.936-4.621c0.073-0.143,0.301-0.293,0.458-0.294
		c3.514-0.015,7.028-0.009,10.541-0.005c0.035,0,0.071,0.021,0.266,0.084c-0.39,0.941-0.703,1.91-1.172,2.795
		c-2.552,4.813-6.46,8.144-11.559,9.923c-7.524,2.626-15.069,2.469-22.361-0.809c-7.006-3.15-10.959-8.787-12.241-16.303
		c-0.783-4.593-0.469-9.128,1.194-13.506c2.325-6.124,6.591-10.37,12.763-12.543c6.542-2.304,13.174-2.238,19.716-0.003
		c6.329,2.162,10.435,6.631,12.64,12.896c1.274,3.62,1.726,7.374,1.768,11.191C188.038,62.799,188.025,62.891,188.012,63.068z
		 M150.19,55.218c9.041,0,18.027,0,27.072,0c-0.058-0.285-0.096-0.523-0.155-0.756c-1.171-4.606-3.943-7.659-8.636-8.78
		c-2.876-0.687-5.787-0.75-8.696-0.183c-3.707,0.722-6.506,2.701-8.269,6.07C150.91,52.708,150.457,53.906,150.19,55.218z"/>
	<path d="M242.499,59.518c-0.025,5.013-0.707,9.022-2.664,12.737c-2.455,4.662-6.31,7.699-11.197,9.492
		c-4.316,1.583-8.787,1.985-13.343,1.644c-3.787-0.284-7.415-1.169-10.78-2.971c-5.905-3.161-9.241-8.176-10.403-14.684
		c-0.879-4.922-0.688-9.805,1.057-14.536c2.383-6.46,6.902-10.786,13.46-12.824c6.328-1.966,12.741-1.983,19.052,0.069
		c7.741,2.518,12.333,7.975,14.177,15.83C242.33,56.28,242.517,58.319,242.499,59.518z M232.278,59.378
		c-0.094-0.729-0.175-2.14-0.468-3.505c-1.034-4.819-3.884-8.072-8.626-9.521c-3.325-1.016-6.702-1.015-10.05-0.058
		c-4.235,1.21-7.12,3.895-8.422,8.119c-1.256,4.073-1.169,8.178,0.264,12.191c1.34,3.754,3.97,6.297,7.783,7.491
		c3.531,1.106,7.114,1.102,10.646-0.009c3.44-1.082,5.917-3.308,7.408-6.609C231.879,65.115,232.219,62.612,232.278,59.378z"/>
	<path d="M282.9,37.522c0,0,8.778-0.001,10.559,0c0.384,0,0.56,0.12,0.721,0.464c4.925,10.55,15.084,32.213,15.084,32.213
		s10.854-23.507,14.866-32.202c0.122-0.263,0.202-0.479,0.59-0.476c3.477,0.02,10.687,0,10.687,0s-15.629,32.669-22.855,47.774
		c-1.598,3.341-3.667,6.293-6.758,8.428c-3.06,2.114-6.492,3.072-10.174,3.192c-2.777,0.091-5.546-0.007-8.259-0.691
		c-0.621-0.156-1.419-0.214-1.776-0.627c-0.307-0.355-0.12-1.184-0.12-1.756c-0.008-2.033-0.003-6.761-0.003-6.761
		s2.064,0.493,3.067,0.651c3.53,0.556,7.01,0.43,10.326-1.051c1.959-0.875,3.353-2.31,3.723-4.502
		c0.26-1.541,0.083-3.097-0.49-4.537c-0.819-2.058-1.731-4.082-2.695-6.077C293.971,60.347,282.9,37.522,282.9,37.522z"/>
	<path d="M259.415,82.024c-3.384,0-6.685,0-10.038,0c0-14.816,0-29.619,0-44.457c3.316,0,6.632,0,10.039,0c0,2.583,0,5.182,0,7.781
		c0.052,0.016,0.105,0.031,0.157,0.047c0.113-0.159,0.231-0.314,0.339-0.476c2.838-4.263,6.843-6.676,11.891-7.25
		c2.042-0.232,4.125-0.101,6.19-0.136c0.305-0.005,0.487,0.072,0.485,0.449c-0.014,3.438-0.011,6.876-0.015,10.315
		c0,0.036-0.018,0.072-0.045,0.168c-0.576-0.128-1.152-0.278-1.736-0.382c-3.546-0.63-7.074-0.625-10.522,0.524
		c-4.059,1.353-6.165,4.29-6.618,8.473c-0.104,0.96-0.12,1.933-0.121,2.9c-0.01,7.105-0.005,14.209-0.005,21.314
		C259.415,81.519,259.415,81.746,259.415,82.024z"/>
</g>
</svg>
