<?xml version="1.0" encoding="utf-8"?>
<!-- Generator: Adobe Illustrator 21.1.0, SVG Export Plug-In . SVG Version: 6.00 Build 0)  -->
<svg version="1.1" id="Layer_1" xmlns="http://www.w3.org/2000/svg" xmlns:xlink="http://www.w3.org/1999/xlink" x="0px" y="0px"
	 viewBox="0 0 512 190" style="enable-background:new 0 0 512 190;" xml:space="preserve">
<style type="text/css">
	.st0{fill:#231F20;}
	.st1{fill:#21AA50;}
</style>
<g>
	<g>
		<g>
			<path class="st0" d="M294.5,119.3c-23.2,0-33.6-9.5-33.7-30.9v-0.3c0.1-21.4,10.5-30.9,33.7-30.9h1.2c22.8,0,33.2,9.1,33.6,29.6
				c0,1.2-0.3,2.2-1.1,3c-1.2,1.2-3.4,1.9-6.2,1.9H316l-45.1,0l0.4,3.3c1.3,10.5,9,15.6,23.4,15.6h0.7c5.8,0,12.5-0.5,17.6-4.6
				l0.4-0.3c1.4-1.1,2.2-1.7,4.9-1.7h7.4c0.6,0,1,0.1,1.2,0.4c0.3,0.4,0.2,1.2,0.2,1.3c-4.9,12-18.6,13.6-31.4,13.6L294.5,119.3
				L294.5,119.3z M271.8,79.3c-0.1,0.3-0.1,0.6-0.2,0.9l0,0.1l0,0.1c-0.1,1,0.2,1.9,0.8,2.6c1,1.1,2.7,1.7,5.1,1.9l34.7,0
				c2.9-0.1,4.8-0.7,5.8-2c0.5-0.6,0.9-1.6,0.6-3c-2.1-9.3-9.7-13.8-23.2-13.8h-0.7c-12.5,0-19.9,3.8-22.6,11.7L271.8,79.3
				L271.8,79.3L271.8,79.3z"/>
			<path class="st0" d="M177.6,118.8c-0.4,0-1-0.2-1.9-1.7c-4.2-7.3-6.3-16.7-6.4-28.6V34.6c0-1.5,0.6-2.2,2.2-2.2h6.2
				c0.6,0,1.7,1.1,1.8,2.2v55.3h0c0.2,8.1,1.6,14.7,4.4,20.2c0.2,0.5,0.9,1.7,1.2,2.2c0.4,0.7,0.3,1.4-0.4,1.9l-5.2,3.7
				c-0.7,0.5-1.1,0.8-1.7,0.9C177.8,118.8,177.7,118.8,177.6,118.8z"/>
			<path class="st0" d="M96.3,160.1c-0.8,0-1.8-0.9-1.8-1.8V87.9l0-0.4c0.2-20.8,10.6-30.1,33.7-30.1h1.2c23.2,0,33.6,9.5,33.7,30.9
				v0.3c-0.1,21.4-10.4,30.9-33.7,30.9h-1.2c-6.4,0-11.9-0.6-16.3-1.6c-0.9-0.2-1.7-0.3-2.4-0.3c-3.1,0-4.9,1.9-4.9,5.2v35.6
				c0,0.8-0.6,1.8-1.8,1.8H96.3z M128.4,66.1c-16.2,0-23.8,7.1-23.8,22.2v0.2c0.1,15.2,7.6,22.3,23.8,22.3h0.7
				c16.2,0,23.8-7.1,23.8-22.2v-0.2c-0.1-15.2-7.6-22.2-23.8-22.2L128.4,66.1L128.4,66.1z"/>
			<path class="st0" d="M254.5,87.9l0-0.4c-0.2-20.8-10.6-30.1-33.6-30.1h-1.2c-23.2,0-33.6,9.5-33.7,30.9v0.3
				c0.1,21.4,10.4,30.9,33.7,30.9h1.2c6.4,0,11.8-0.6,16.3-1.6c0.9-0.2,1.7-0.3,2.4-0.3c1.4,0,2.5,0.4,3.4,1.1
				c0.8,0.6,0.9,0.6,2.7,0.6c1.7,0,4.1,0,5.9,0c2.7,0,3.1-1.3,3.1-2.5V87.9z M244.4,88.5c0,15.2-7.6,22.3-23.8,22.3h-0.7
				c-16.2,0-23.8-7.1-23.8-22.2v-0.2c0.1-15.2,7.6-22.2,23.8-22.2h0.7c16.2,0,23.8,7.1,23.8,22.2V88.5z"/>
		</g>
	</g>
	<g>
		<g>
			<path class="st1" d="M357.4,117.8c2.8-1.8,7.1-4.5,7.9-5c0,0,0.1-0.1,0.1-0.1c0.5-2,0.9-3.6,1-4.3c0.6-2.6,1.2-3.5,2.4-4.8
				c1.2-1.2,10.7-10,11.7-10.8c1-0.8,0.7-1.6,0.9-1.8c0.1-0.2-4.3-4.5-5.4-5.9c-1.1-1.3-1.5-0.2-1.7,0c-0.2,0.2-3.8,4.1-5.5,6.2
				c-1.7,2.1-2.4,1.5-3.7,1.1c-1.2-0.4-11.4-7.3-11.4-7.3v-3.7c0,0,9.5,2.9,10.5,3.3c1,0.4,1.8,0.7,2.3-0.1c0.5-0.8,2.3-5.9,3.5-7.2
				c1.2-1.3,2.9-2.4,3.5-2.5c0.6-0.1,0.6-0.4,0.7-0.7c0-0.1,0.1-0.2,0.1-0.2c2.8-0.1,5.2-1.4,6.9-3.4c-1.6,1.6-3.9,2.6-6.4,2.6
				c-5,0-9-4.1-9-9c0-5,4.1-9.1,9-9.1c5,0,9,4.1,9,9.1c0,2.2-0.8,4.1-2.1,5.7h0.6c0.4,0.7,1.3,0.9,1.3,0.9s2.9-0.1,4,0
				c1.1,0.1,7.5,2.1,10.7,3.1c3.2,1,5.1,2.3,6.7,3.3c1.3,0.8,5.5,4.6,7,5.9l1.2-0.7c5-3.1,5-10.4,0-13.5l-27.8-17.6l-28.7-18.2
				c-4.3-2.7-9.8,0.4-9.8,5.4v37.2v37.2c0,5,5.6,8.1,9.8,5.4L357.4,117.8L357.4,117.8z"/>
			<path class="st1" d="M395.4,80c-2.9,0-3.9-0.6-3.9,0c0,0.6,3.5,6.3,5.3,9c0.8,1.1,1.2,2,1.4,2.8c1.1-0.7,2.3-1.4,3.4-2.1l6.8-4.3
				c-2.7-1.6-6.4-3.7-7.3-4.2C399.8,80.5,398.3,80,395.4,80z"/>
		</g>
	</g>
</g>
</svg>
