<?xml version="1.0" encoding="utf-8"?>
<!-- Generator: Adobe Illustrator 21.1.0, SVG Export Plug-In . SVG Version: 6.00 Build 0)  -->
<svg version="1.1" id="Layer_1" xmlns="http://www.w3.org/2000/svg" xmlns:xlink="http://www.w3.org/1999/xlink" x="0px" y="0px"
	 viewBox="0 0 360 120" style="enable-background:new 0 0 360 120;" xml:space="preserve">
<style type="text/css">
	.st0{fill:#6F7175;}
</style>
<g>
	<path class="st0" d="M76.5,77.7c-1.8,0-3.6-0.4-4.6-2.2L54,44.4l9-10.6c4.1-4.9,6.6-6.9,9-6.9h2.5v-2.6H59.2h-5.4H25V27h3.8
		c1.2,0,2,0.9,2,2v46.8c0,1.1-0.8,2-2,2H25v2.6h26.7h0.9h25.1v-2.6C77.7,77.7,76.5,77.7,76.5,77.7z M55.5,77.7h-2.9h-0.9h-6.4
		c-1.2,0-2-0.9-2-2V29c0-1.1,0.8-2,2-2h8.6h2.7c3.4,0,5,4,2.2,7.3L43.7,52.1L56.8,75C57.7,76.6,57.3,77.7,55.5,77.7z"/>
</g>
<path class="st0" d="M74.5,97.6c-6.8,0-10.8-4.1-10.8-8.1c0-3.3,2.5-5.2,5.2-5.2c5.9,0,1.8,10.1,6.6,10.1c2.6,0,3.6-2,3.6-6.3V45.2
	c0-1.1-0.8-2-2-2h-4.2v-2.6h9.1c2.6,0,6.2-1,6.2-4.2h2.2v45.3C90.3,90.7,85.6,97.6,74.5,97.6z M90.3,28c0,3.1-2.5,5.6-5.6,5.6
	c-3.1,0-5.6-2.5-5.6-5.6s2.5-5.6,5.6-5.6C87.8,22.4,90.3,24.9,90.3,28z"/>
<path class="st0" d="M129.9,39.2c10.8,0,14.6,7.3,14.6,19.9h-19.8c0,0.4,0,0.8,0,1.4c0,13.4,2.5,17.9,7.3,17.9c5.3,0,9-4.1,9.4-11.1
	h2.5c-0.3,8.2-5.6,14.3-13.5,14.3c-6.3,0-11.9-3.1-15-9.4H115c-0.7,6.6-5.4,9.5-11.3,9.5c-7.8,0-11.1-4.8-11.1-10.3
	c0-10.5,11.8-15.1,20.9-15.1v-8.9c0-3.9-1.2-5.5-3.8-5.5c-3.8,0-6.1,2.9-6.1,6.6c0,0.6,0.1,1.3,0.1,2.4c0,2.9-1.8,4.9-4.6,4.9
	c-2.5,0-4.3-1.7-4.3-5c0-6,7.2-11.8,16.8-11.8c4.1,0,6.7,1.1,8.4,3C122.7,40.3,126,39.2,129.9,39.2z M104.2,70.7
	c0,3.9,0.8,7.2,4,7.2c4.5,0,5.3-7.1,5.3-11.5v-7.3C111.3,59.1,104.2,58.8,104.2,70.7z M134.9,56.4c0-11.9-1.8-14.3-5-14.3
	c-3.8,0-4.9,3.8-5.1,14.3H134.9z"/>
<path class="st0" d="M160.5,60.4v15.3c0,1.1,0.8,2,2,2h3.2v2.6h-22.2v-2.6h3.8c1.2,0,2-0.9,2-2V45.2c0-1.1-0.8-2-2-2h-3.8v-2.6h8.6
	c2.6,0,6.2-1,6.2-4.2h2.2v10.3h0.4c0.9-4.2,4.2-7.4,9.1-7.4c7,0,8.1,5.8,8.1,9.4c0,4.1-2,7.2-5.1,7.2c-2.3,0-3.8-1.4-3.8-4.4
	c0-2.7,0.6-4.3,0.6-6.4c0-1.4-0.5-2.2-2.3-2.2C162.9,42.7,160.5,50.9,160.5,60.4z"/>
<path class="st0" d="M261.6,60.4c0,13.4,2.5,17.9,7.3,17.9c5.3,0,9-4.1,9.4-11.1h2.5c-0.3,8.2-5.6,14.3-13.5,14.3
	c-9.6,0-17.7-7.1-17.7-21.1c0-13.8,6.6-21.3,17.2-21.3c10.8,0,14.6,7.3,14.6,19.9h-19.8C261.6,59.5,261.6,59.9,261.6,60.4z
	 M271.8,56.4c0-11.9-1.8-14.3-5-14.3c-3.8,0-4.9,3.8-5.1,14.3H271.8z"/>
<path class="st0" d="M298.4,75.7c0,1.1,0.8,2,2,2h3.5v2.6h-22.5v-2.6h3.8c1.2,0,2-0.9,2-2V45.2c0-1.1-0.8-2-2-2h-3.8v-2.6h8.6
	c2.6,0,6.2-1,6.2-4.2h2.2V75.7z M298.4,28c0,3.1-2.5,5.6-5.6,5.6c-3.1,0-5.6-2.5-5.6-5.6s2.5-5.6,5.6-5.6
	C295.9,22.4,298.4,24.9,298.4,28z"/>
<path class="st0" d="M318.7,81.7c-4.5,0-8.2-1.8-9.5-1.8c-1,0-1.5,0.5-1.5,1.7h-1.7V67.2h2.5c0.3,7.8,5.1,12.1,10.3,12.1
	c4.6,0,7.5-2.3,7.5-6.5c0-10.2-20.5-3.9-20.5-20.6c0-8.6,7.3-13.1,14.5-13.1c4.2,0,6.9,1.8,8.2,1.8c1,0,1.5-0.5,1.5-1.5h1.7v13.4
	h-2.5c-0.2-7-4.2-11.2-9-11.2c-3.8,0-6,2.2-6,5.6c0,10.4,20.7,4.7,20.7,21C335,77.9,327.4,81.7,318.7,81.7z"/>
<g>
	<path class="st0" d="M243.2,24.3h-1.8h-30h-23.2V27h3.8c1.2,0,1.8,1,2.1,2.1l14.8,51.3h8.6l7.6-20.1l6.3,20.1h7.6l12.5-44.6
		c2.1-7.4,4.6-8.8,6.9-8.8h1v-2.6H243.2z M218.2,70l-11.5-40.6c-0.4-1.4,0.6-2.4,1.8-2.4h2.7h1.7c1.2,0,1.7,1,2.1,2.1l8.4,26.7
		L218.2,70z M226.3,29.4c-0.4-1.4,0.6-2.4,1.8-2.4h1.6h1.1c3.1,0,2.6,1.9,1.4,5.1l-2.8,7.6L226.3,29.4z M248.1,35.6L238.5,70
		l-7.7-25.5l4.5-11.9c1.5-4,2.6-5.6,5-5.6h1h1.8h1.1C249,27,249.9,29.4,248.1,35.6z"/>
</g>
</svg>
