<?xml version="1.0" encoding="utf-8"?>
<!-- Generator: Adobe Illustrator 21.1.0, SVG Export Plug-In . SVG Version: 6.00 Build 0)  -->
<svg version="1.1" id="Layer_1" xmlns="http://www.w3.org/2000/svg" xmlns:xlink="http://www.w3.org/1999/xlink" x="0px" y="0px"
	 viewBox="0 0 316 178" style="enable-background:new 0 0 316 178;" xml:space="preserve">
<style type="text/css">
	.st0{fill:#6F7175;}
</style>
<g>
	<g>
		<g>
			<path class="st0" d="M179.5,103.1c-13,0-18.8-5.3-18.8-17.3v-0.1c0.1-11.9,5.9-17.3,18.8-17.3h0.7c12.7,0,18.6,5.1,18.8,16.6
				c0,0.7-0.2,1.2-0.6,1.7c-0.7,0.7-1.9,1.1-3.4,1.1h-3.4h-25.3l0.2,1.8c0.7,5.9,5,8.8,13.1,8.8h0.4c3.2,0,7-0.3,9.9-2.6l0.2-0.2
				c0.7-0.6,1.2-1,2.7-1h4.1c0.4,0,0.6,0.1,0.7,0.2c0.1,0.2,0.1,0.7,0.1,0.7c-2.7,6.7-10.4,7.6-17.6,7.6L179.5,103.1L179.5,103.1z
				 M166.7,80.7c0,0.1-0.1,0.4-0.1,0.5v0.1v0.1c-0.1,0.5,0.1,1,0.4,1.4c0.5,0.6,1.5,1,2.9,1h19.4c1.6,0,2.7-0.4,3.2-1.1
				c0.3-0.3,0.5-0.9,0.4-1.7c-1.2-5.2-5.4-7.8-13-7.8h-0.4c-7,0-11.1,2.1-12.7,6.5L166.7,80.7L166.7,80.7L166.7,80.7z"/>
			<path class="st0" d="M114.1,102.8c-0.2,0-0.6-0.1-1-1c-2.3-4.1-3.5-9.4-3.6-16V55.7c0-0.9,0.4-1.2,1.2-1.2h3.4c0.3,0,1,0.7,1,1.2
				v30.9l0,0c0.1,4.5,0.9,8.3,2.4,11.3c0.1,0.3,0.5,1,0.7,1.2c0.2,0.4,0.1,0.8-0.2,1.1l-2.9,2.1
				C114.7,102.6,114.4,102.8,114.1,102.8C114.2,102.8,114.1,102.8,114.1,102.8z"/>
			<path class="st0" d="M68.5,125.9c-0.4,0-1-0.5-1-1V85.5v-0.2c0.1-11.6,5.9-16.8,18.8-16.8H87c13,0,18.8,5.3,18.8,17.3v0.1
				c-0.1,11.9-5.9,17.3-18.8,17.3h-0.7c-3.6,0-6.7-0.3-9.1-0.9c-0.5-0.1-1-0.1-1.3-0.1c-1.8,0-2.8,1.1-2.8,2.9V125c0,0.4-0.4,1-1,1
				L68.5,125.9L68.5,125.9z M86.6,73.3c-9.1,0-13.3,4-13.3,12.4v0.1c0,8.5,4.2,12.4,13.3,12.4h0.4c9.1,0,13.3-4,13.3-12.4v-0.1
				c0-8.5-4.2-12.4-13.3-12.4H86.6L86.6,73.3z"/>
			<path class="st0" d="M157.1,85.5v-0.2c-0.1-11.6-5.9-16.8-18.8-16.8h-0.7c-13,0-18.8,5.3-18.8,17.3v0.1
				c0.1,11.9,5.9,17.3,18.8,17.3h0.7c3.6,0,6.6-0.3,9.1-0.9c0.5-0.1,1-0.1,1.3-0.1c0.8,0,1.4,0.2,1.9,0.7c0.4,0.4,0.5,0.4,1.5,0.4
				c1,0,2.3,0,3.3,0c1.5,0,1.8-0.7,1.8-1.4L157.1,85.5L157.1,85.5z M151.4,85.9c0,8.5-4.2,12.4-13.3,12.4h-0.4
				c-9.1,0-13.3-4-13.3-12.4v-0.1c0-8.5,4.2-12.4,13.3-12.4h0.4C147.2,73.3,151.4,77.3,151.4,85.9L151.4,85.9z"/>
		</g>
	</g>
	<g>
		<g>
			<path class="st0" d="M214.7,102.3c1.5-1,4-2.6,4.5-2.8c0,0,0.1,0,0.1-0.1c0.3-1.1,0.5-2,0.6-2.4c0.4-1.5,0.7-2,1.4-2.6
				c0.7-0.7,6-5.6,6.5-6.1c0.5-0.4,0.4-0.9,0.5-1c0.1-0.1-2.4-2.6-3-3.3c-0.6-0.7-0.8-0.1-1,0c-0.1,0.1-2.1,2.3-3.1,3.4
				c-1,1.2-1.4,0.8-2.1,0.6c-0.7-0.2-6.4-4.1-6.4-4.1v-2.1c0,0,5.3,1.6,5.9,1.8c0.6,0.2,1,0.4,1.2-0.1c0.3-0.4,1.3-3.3,2-4
				c0.7-0.7,1.6-1.4,2-1.4c0.3,0,0.4-0.2,0.4-0.4c0-0.1,0.1-0.1,0.1-0.1c1.5-0.1,2.9-0.8,3.9-1.9c-1,0.9-2.2,1.5-3.6,1.5
				c-2.8,0-5.1-2.3-5.1-5.1s2.3-5.1,5.1-5.1s5.1,2.3,5.1,5.1c0,1.2-0.4,2.3-1.2,3.2h0.3c0.2,0.4,0.7,0.5,0.7,0.5s1.6-0.1,2.3,0
				c0.6,0.1,4.2,1.2,5.9,1.8c1.8,0.5,2.9,1.3,3.7,1.8c0.7,0.4,3.1,2.6,3.9,3.3l0.7-0.4c2.8-1.8,2.8-5.8,0-7.5l-15.6-9.9l-16-10.1
				c-2.4-1.5-5.5,0.2-5.5,3v20.8v20.8c0,2.9,3.1,4.5,5.5,3L214.7,102.3L214.7,102.3z"/>
			<path class="st0" d="M235.9,81.1c-1.6,0-2.2-0.4-2.2,0c0,0.4,2,3.5,3,5.1c0.4,0.7,0.7,1.1,0.8,1.6c0.6-0.4,1.2-0.8,1.9-1.2
				l3.8-2.4c-1.5-0.9-3.6-2.1-4.1-2.3C238.4,81.4,237.5,81.1,235.9,81.1z"/>
		</g>
	</g>
</g>
</svg>
