<?xml version="1.0" encoding="utf-8"?>
<!-- Generator: Adobe Illustrator 21.1.0, SVG Export Plug-In . SVG Version: 6.00 Build 0)  -->
<svg version="1.1" id="Layer_1" xmlns="http://www.w3.org/2000/svg" xmlns:xlink="http://www.w3.org/1999/xlink" x="0px" y="0px"
	 viewBox="0 0 726 360" style="enable-background:new 0 0 726 360;" xml:space="preserve">
<style type="text/css">
	.st0{fill:#858589;}
</style>
<g>
	<path class="st0" d="M450.6,137.7c-2.5-3-5.5-5.1-9.3-6.8c-3.8-1.7-8-2.5-12.3-2.5c-5.9,0-11.4,1.3-16.1,3.8
		c-4.2,2.5-8,5.9-10.2,10.6c-1.3,2.5-2.5,5.5-3,8.9c-0.4,3.4-0.8,7.2-0.8,11.4v31.7c0,4.2,0.4,8,0.8,11.4c0.4,3.4,1.7,6.3,3,8.9
		c2.5,4.2,5.9,7.6,10.2,10.6c4.2,2.5,9.7,3.8,16.1,3.8c4.7,0,8.9-0.8,12.3-2.5c3.8-1.7,6.8-3.8,9.3-6.3s4.7-5.9,5.9-9.3
		c1.3-3.4,2.1-7.2,2.1-11.4h-19.5c-0.4,2.1-1.3,4.2-2.1,6.8c-1.3,2.5-3.8,3.4-8,3.4c-3,0-5.5-0.8-7.6-2.5c-1.7-1.7-3-4.2-3-7.6
		v-39.8c0-3.8,0.8-6.8,3-8.9c1.7-2.1,4.2-3,7.6-3s5.5,0.8,7.6,3c1.7,2.1,2.5,5.1,3,8.9H459c0-4.2-0.8-8.5-2.1-12.3
		C454.8,143.6,453.1,140.2,450.6,137.7z"/>
	<path class="st0" d="M525.9,211.3c1.3-3.4,2.1-7.2,2.1-11.4h-19.5c-0.4,2.1-1.3,4.2-2.1,6.8c-1.3,2.5-3.8,3.4-8,3.4
		c-3,0-5.5-0.8-7.6-2.5c-1.7-1.7-3-4.2-3-7.6v-13.5H528v-26.7c0-4.2-0.8-8.5-2.1-12.3c-1.3-3.8-3.4-7.2-5.9-9.7
		c-2.5-3-5.5-5.1-9.3-6.8s-8-2.1-12.3-2.1c-5.9,0-11.4,1.3-16.1,3.8c-4.2,2.5-8,5.9-10.2,10.6c-1.3,2.5-2.5,5.5-3,8.9
		s-0.8,7.2-0.8,11.4v31.7c0,4.2,0.4,8,0.8,11.4s1.7,6.3,3,8.9c2.5,4.2,5.9,7.6,10.2,10.6c4.2,2.5,9.7,3.8,16.1,3.8
		c4.7,0,8.9-0.8,12.3-2.5c3.8-1.7,6.8-3.8,9.3-6.3C522.5,218.1,524.6,215.1,525.9,211.3z M487.8,160.1c0-3.8,0.8-6.8,3-8.9
		c1.7-2.1,4.2-3,7.6-3c3,0,5.5,0.8,7.6,3c1.7,2.1,3,5.1,3,8.9v7.6c0,2.1-1.7,3.4-3.4,3.4h-17.8L487.8,160.1z"/>
	<path class="st0" d="M249.2,129.7h-16.9v132c0,1.7,1.3,3,3,3h16.5v-35.1H262c6.3,0,11.4-1.3,16.1-3.8c4.2-2.5,8-5.9,10.2-10.6
		c1.3-2.5,2.5-5.5,3-8.9c0.4-3.4,0.8-7.2,0.8-11.4v-31.7c0-4.2-0.4-8-0.8-11.4c-0.4-3.4-1.7-6.3-3-8.9c-2.5-4.2-5.9-7.6-10.2-10.6
		c-5.1-3-10.2-3.8-16.1-2.5c-3,0.4-5.9,2.1-9.3,4.2l-0.4,0.4v-1.7C251.7,130.9,250.5,129.7,249.2,129.7z M254.7,151.2
		c1.7-2.1,4.2-3,7.6-3c3,0,5.5,0.8,7.6,3c1.7,2.1,3,5.1,3,8.9v38.1c0,3.8-0.8,6.8-3,8.9c-1.7,2.1-4.2,3-7.6,3h-6.8
		c-2.1,0-3.4-1.7-3.4-3.4v-46.5C251.7,155.9,253,152.9,254.7,151.2z"/>
	<path class="st0" d="M333.4,152.9c2.1-1.7,7.6-5.1,19.5-5.1v-19c-5.5,0-10.2,0.8-14.4,3c-3.8,2.1-8,5.1-11.8,8.9l-0.4,0.4v-8.5
		c0-1.7-1.3-3-3-3h-16.5v95.6c0,1.7,1.3,3,3,3h16.5v-58.4c0-3.8,0.4-6.8,2.1-9.7C329.6,157.2,331.7,154.6,333.4,152.9z"/>
	<path class="st0" d="M201,229.5h16.5V213c0-1.7-1.3-3-3-3H198v16.5C198,228.2,199.3,229.5,201,229.5z"/>
	<path class="st0" d="M368.9,114.8h16.5V98.3c0-1.7-1.3-3-3-3H366v16.5C366,113.6,367.2,114.8,368.9,114.8z"/>
	<path class="st0" d="M382.5,129.7H366v95.6c0,1.7,1.3,3,3,3h16.5v-95.6C385.4,130.9,384.2,129.7,382.5,129.7z"/>
</g>
</svg>
