<?xml version="1.0" encoding="utf-8"?>
<!-- Generator: Adobe Illustrator 22.0.1, SVG Export Plug-In . SVG Version: 6.00 Build 0)  -->
<svg version="1.1" id="Layer_1" xmlns="http://www.w3.org/2000/svg" xmlns:xlink="http://www.w3.org/1999/xlink" x="0px" y="0px"
	 viewBox="0 0 404 76" enable-background="new 0 0 404 76" xml:space="preserve">
<g>
	<path fill="#231F20" d="M17.452,30.996c-0.491-0.62-1.156-1.078-1.995-1.375c-0.84-0.297-1.634-0.446-2.383-0.446
		c-0.44,0-0.891,0.052-1.356,0.155c-0.465,0.104-0.905,0.265-1.317,0.484c-0.414,0.22-0.75,0.51-1.008,0.872
		c-0.258,0.362-0.387,0.801-0.387,1.317c0,0.827,0.31,1.46,0.93,1.899c0.62,0.439,1.401,0.814,2.344,1.124
		c0.943,0.31,1.957,0.62,3.042,0.93c1.085,0.31,2.098,0.749,3.041,1.317c0.943,0.568,1.724,1.331,2.344,2.286
		c0.62,0.956,0.93,2.234,0.93,3.836c0,1.524-0.285,2.854-0.853,3.991c-0.568,1.137-1.337,2.08-2.305,2.828
		c-0.969,0.75-2.092,1.305-3.371,1.666c-1.279,0.361-2.629,0.542-4.049,0.542c-1.783,0-3.436-0.271-4.96-0.813
		c-1.524-0.543-2.945-1.421-4.262-2.635l4.301-4.727c0.62,0.827,1.401,1.467,2.344,1.918c0.943,0.452,1.918,0.678,2.926,0.678
		c0.49,0,0.988-0.058,1.492-0.174c0.504-0.116,0.955-0.29,1.356-0.523c0.4-0.232,0.723-0.529,0.969-0.891
		c0.245-0.362,0.368-0.788,0.368-1.279c0-0.826-0.317-1.479-0.949-1.957c-0.633-0.478-1.428-0.885-2.383-1.22
		c-0.956-0.336-1.989-0.672-3.1-1.008c-1.111-0.335-2.144-0.788-3.1-1.356c-0.956-0.568-1.75-1.317-2.383-2.247
		c-0.633-0.93-0.949-2.156-0.949-3.681c0-1.472,0.291-2.764,0.872-3.875c0.581-1.11,1.356-2.04,2.325-2.79
		c0.969-0.749,2.086-1.311,3.352-1.686c1.265-0.374,2.57-0.562,3.913-0.562c1.55,0,3.048,0.22,4.495,0.659
		c1.446,0.44,2.751,1.176,3.913,2.209L17.452,30.996z"/>
	<path fill="#231F20" d="M26.634,24.293h6.045v10.229h11.74V24.293h6.044v27.433h-6.044V39.869h-11.74v11.856h-6.045V24.293z"/>
	<path fill="#231F20" d="M55.074,38.01c0-2.195,0.368-4.185,1.104-5.967c0.736-1.783,1.763-3.3,3.08-4.553
		c1.317-1.253,2.88-2.215,4.688-2.887c1.808-0.672,3.784-1.008,5.928-1.008c2.144,0,4.12,0.336,5.929,1.008
		c1.808,0.672,3.371,1.634,4.688,2.887c1.317,1.253,2.344,2.77,3.081,4.553c0.736,1.782,1.104,3.772,1.104,5.967
		c0,2.196-0.368,4.185-1.104,5.967c-0.736,1.782-1.763,3.3-3.081,4.553c-1.317,1.253-2.881,2.215-4.688,2.887
		c-1.808,0.672-3.785,1.007-5.929,1.007c-2.144,0-4.12-0.336-5.928-1.007c-1.808-0.672-3.371-1.633-4.688-2.887
		c-1.317-1.253-2.344-2.77-3.08-4.553C55.443,42.194,55.074,40.205,55.074,38.01z M61.351,38.01c0,1.292,0.2,2.474,0.601,3.545
		c0.4,1.072,0.975,2.002,1.724,2.79c0.749,0.788,1.647,1.401,2.693,1.84c1.046,0.44,2.215,0.659,3.507,0.659
		c1.292,0,2.461-0.219,3.507-0.659c1.046-0.439,1.943-1.052,2.693-1.84c0.749-0.788,1.323-1.718,1.724-2.79
		c0.4-1.071,0.601-2.253,0.601-3.545c0-1.265-0.2-2.441-0.601-3.526c-0.401-1.085-0.975-2.021-1.724-2.809
		c-0.749-0.788-1.647-1.401-2.693-1.84c-1.046-0.439-2.215-0.659-3.507-0.659c-1.292,0-2.46,0.22-3.507,0.659
		c-1.046,0.439-1.944,1.053-2.693,1.84c-0.75,0.788-1.324,1.724-1.724,2.809C61.551,35.569,61.351,36.744,61.351,38.01z"/>
	<path fill="#231F20" d="M89.288,24.293h10.19c1.42,0,2.764,0.13,4.03,0.387c1.265,0.259,2.369,0.704,3.313,1.337
		c0.943,0.633,1.692,1.486,2.247,2.557c0.555,1.072,0.833,2.422,0.833,4.049c0,1.602-0.258,2.945-0.775,4.03
		c-0.517,1.085-1.227,1.951-2.131,2.596c-0.905,0.646-1.976,1.104-3.216,1.376c-1.24,0.271-2.583,0.407-4.03,0.407h-4.417v10.694
		h-6.045V24.293z M95.332,35.917h4.03c0.542,0,1.065-0.051,1.569-0.155c0.504-0.103,0.955-0.277,1.356-0.523
		c0.4-0.245,0.723-0.581,0.969-1.008c0.245-0.426,0.368-0.962,0.368-1.608c0-0.698-0.162-1.259-0.484-1.686
		c-0.323-0.426-0.736-0.756-1.24-0.988c-0.504-0.233-1.065-0.381-1.686-0.446c-0.62-0.064-1.214-0.097-1.782-0.097h-3.1V35.917z"/>
	<path fill="#231F20" d="M131.483,29.64h-7.827v-5.347h21.698v5.347h-7.827v22.086h-6.044V29.64z"/>
	<path fill="#231F20" d="M148.919,24.293h6.045v10.229h11.74V24.293h6.044v27.433h-6.044V39.869h-11.74v11.856h-6.045V24.293z"/>
	<path fill="#231F20" d="M179.063,24.293h18.637v5.58h-12.593v5.115h11.895v5.579h-11.895v5.58h13.29v5.58h-19.335V24.293z"/>
	<path fill="#231F20" d="M233.657,31.423c-0.594-0.723-1.324-1.279-2.189-1.666c-0.866-0.387-1.867-0.581-3.003-0.581
		s-2.189,0.22-3.158,0.659c-0.968,0.439-1.808,1.053-2.518,1.84c-0.711,0.788-1.266,1.724-1.666,2.809
		c-0.401,1.085-0.601,2.261-0.601,3.526c0,1.292,0.2,2.474,0.601,3.545c0.4,1.072,0.949,2.002,1.647,2.79
		c0.697,0.788,1.517,1.401,2.46,1.84c0.943,0.44,1.957,0.659,3.042,0.659c1.24,0,2.337-0.258,3.293-0.775
		c0.956-0.516,1.743-1.24,2.364-2.17l5.037,3.759c-1.162,1.628-2.635,2.829-4.417,3.603c-1.782,0.775-3.617,1.162-5.502,1.162
		c-2.144,0-4.121-0.336-5.928-1.007c-1.809-0.672-3.371-1.633-4.689-2.887c-1.317-1.253-2.344-2.77-3.08-4.553
		c-0.736-1.782-1.105-3.771-1.105-5.967c0-2.195,0.368-4.185,1.105-5.967c0.736-1.783,1.763-3.3,3.08-4.553
		c1.318-1.253,2.88-2.215,4.689-2.887c1.808-0.672,3.784-1.008,5.928-1.008c0.775,0,1.582,0.071,2.422,0.213
		c0.839,0.142,1.666,0.368,2.48,0.678c0.814,0.31,1.595,0.723,2.344,1.24c0.749,0.517,1.421,1.15,2.015,1.898L233.657,31.423z"/>
	<path fill="#231F20" d="M242.763,24.293h10.617c1.395,0,2.718,0.136,3.972,0.407c1.253,0.271,2.35,0.723,3.293,1.356
		c0.943,0.633,1.692,1.486,2.247,2.557c0.555,1.072,0.833,2.409,0.833,4.01c0,1.937-0.503,3.584-1.511,4.94
		c-1.007,1.356-2.48,2.215-4.417,2.576l6.974,11.585h-7.245l-5.735-10.965h-2.984v10.965h-6.044V24.293z M248.807,35.646h3.565
		c0.542,0,1.117-0.019,1.724-0.058c0.606-0.039,1.156-0.155,1.647-0.349c0.49-0.194,0.897-0.497,1.22-0.911
		c0.323-0.413,0.484-0.994,0.484-1.743c0-0.698-0.142-1.253-0.426-1.666c-0.285-0.413-0.646-0.73-1.085-0.949
		c-0.44-0.219-0.943-0.368-1.511-0.446c-0.569-0.077-1.124-0.116-1.666-0.116h-3.953V35.646z"/>
	<path fill="#231F20" d="M268.607,24.293h18.637v5.58h-12.593v5.115h11.895v5.579h-11.895v5.58h13.29v5.58h-19.335V24.293z"/>
	<path fill="#231F20" d="M302.317,24.293h4.999l11.934,27.433h-6.82l-2.364-5.812h-10.655l-2.286,5.812h-6.664L302.317,24.293z
		 M304.642,32.275l-3.332,8.525h6.703L304.642,32.275z"/>
	<path fill="#231F20" d="M324.248,29.64h-7.827v-5.347h21.699v5.347h-7.827v22.086h-6.045V29.64z"/>
	<path fill="#231F20" d="M341.607,24.293h6.044v27.433h-6.044V24.293z"/>
	<path fill="#231F20" d="M350.944,24.293h6.897l6.781,17.979h0.078l6.897-17.979h6.471l-11.314,27.433h-4.843L350.944,24.293z"/>
	<path fill="#231F20" d="M381.67,24.293h18.637v5.58h-12.593v5.115h11.895v5.579h-11.895v5.58h13.29v5.58H381.67V24.293z"/>
</g>
</svg>
