<?xml version="1.0" encoding="utf-8"?>
<!-- Generator: Adobe Illustrator 22.1.0, SVG Export Plug-In . SVG Version: 6.00 Build 0)  -->
<svg version="1.1" id="Layer_1" xmlns="http://www.w3.org/2000/svg" xmlns:xlink="http://www.w3.org/1999/xlink" x="0px" y="0px"
	 viewBox="0 0 402 136" style="enable-background:new 0 0 402 136;" xml:space="preserve">
<style type="text/css">
	.st0{fill:#6F7175;}
</style>
<g>
	<path class="st0" d="M91,86.8c-2,0-3.8-0.4-4.9-2.4l-19-33l9.5-11.2c4.3-5.2,7.1-7.3,9.5-7.3h2.6v-2.8H72.7H67H36.3v2.8h4
		c1.3,0,2.1,0.9,2.1,2.1v49.7c0,1.2-0.9,2.1-2.1,2.1h-4v2.8h28.3h1h26.7v-2.8C92.3,86.8,91,86.8,91,86.8z M68.8,86.8h-3.1h-1h-6.8
		c-1.3,0-2.1-0.9-2.1-2.1V35c0-1.2,0.9-2.1,2.1-2.1H67h2.9c3.7,0,5.3,4.3,2.4,7.7l-16,19L70.1,84C71.1,85.7,70.6,86.8,68.8,86.8z"/>
</g>
<path class="st0" d="M88.9,107.9c-7.2,0-11.5-4.3-11.5-8.6c0-3.5,2.6-5.5,5.5-5.5c6.3,0,2,10.7,7,10.7c2.7,0,3.8-2.1,3.8-6.7V52.3
	c0-1.2-0.9-2.1-2.1-2.1h-4.5v-2.8h9.7c2.8,0,6.6-1,6.6-4.5h2.3V91C105.7,100.6,100.7,107.9,88.9,107.9z M105.7,34c0,3.3-2.6,6-6,6
	s-6-2.6-6-6s2.6-6,6-6C103,28.1,105.7,30.7,105.7,34z"/>
<path class="st0" d="M147.8,45.9c11.5,0,15.5,7.7,15.5,21.1h-21c0,0.4,0,0.9,0,1.4c0,14.2,2.6,19.1,7.7,19.1c5.6,0,9.6-4.3,10-11.7
	h2.6c-0.3,8.8-6,15.2-14.3,15.2c-6.7,0-12.6-3.3-15.9-10H132c-0.8,7.1-5.7,10.1-12,10.1c-8.3,0-11.8-5.1-11.8-11
	c0-11.1,12.5-16,22.2-16v-9.4c0-4.2-1.3-5.9-4-5.9c-4.1,0-6.5,3.1-6.5,7.1c0,0.7,0.1,1.4,0.1,2.6c0,3.1-2,5.2-4.9,5.2
	c-2.6,0-4.6-1.8-4.6-5.3c0-6.4,7.7-12.5,17.9-12.5c4.3,0,7.1,1.2,8.9,3.1C140.2,47,143.6,45.9,147.8,45.9z M120.5,79.4
	c0,4.2,0.9,7.7,4.3,7.7c4.8,0,5.6-7.6,5.6-12.3V67C128,67,120.5,66.7,120.5,79.4z M153.1,64.2c0-12.7-1.9-15.2-5.3-15.2
	c-4,0-5.2,4.1-5.4,15.2H153.1z"/>
<path class="st0" d="M180.3,68.5v16.2c0,1.2,0.9,2.1,2.1,2.1h3.4v2.8h-23.6v-2.8h4c1.3,0,2.1-0.9,2.1-2.1V52.3
	c0-1.2-0.9-2.1-2.1-2.1h-4v-2.8h9.2c2.8,0,6.6-1,6.6-4.5h2.3v11h0.4c0.9-4.5,4.5-7.9,9.7-7.9c7.4,0,8.6,6.1,8.6,10
	c0,4.3-2.1,7.7-5.4,7.7c-2.5,0-4.1-1.4-4.1-4.7c0-2.9,0.6-4.6,0.6-6.8c0-1.4-0.5-2.4-2.5-2.4C182.9,49.7,180.3,58.3,180.3,68.5z"/>
<path class="st0" d="M287.7,68.5c0,14.2,2.6,19.1,7.7,19.1c5.6,0,9.6-4.3,10-11.7h2.6c-0.3,8.8-6,15.2-14.3,15.2
	c-10.2,0-18.8-7.6-18.8-22.5c0-14.6,7-22.6,18.3-22.6c11.5,0,15.5,7.7,15.5,21.1h-21C287.7,67.4,287.7,67.9,287.7,68.5z M298.5,64.2
	c0-12.7-1.9-15.2-5.3-15.2c-4,0-5.2,4.1-5.4,15.2H298.5z"/>
<path class="st0" d="M326.8,84.7c0,1.2,0.9,2.1,2.1,2.1h3.7v2.8h-23.9v-2.8h4c1.3,0,2.1-0.9,2.1-2.1V52.3c0-1.2-0.9-2.1-2.1-2.1h-4
	v-2.8h9.2c2.8,0,6.6-1,6.6-4.5h2.3V84.7z M326.8,34c0,3.3-2.6,6-6,6s-6-2.6-6-6s2.6-6,6-6C324.1,28.1,326.8,30.7,326.8,34z"/>
<path class="st0" d="M348.3,91.1c-4.8,0-8.7-2-10.1-2c-1,0-1.6,0.5-1.6,1.8h-1.8V75.6h2.6c0.3,8.3,5.4,12.8,11,12.8
	c4.8,0,8-2.5,8-6.9c0-10.8-21.8-4.2-21.8-21.9c0-9.1,7.7-14,15.4-14c4.4,0,7.3,2,8.8,2c1,0,1.6-0.5,1.6-1.6h1.8v14.2h-2.6
	c-0.3-7.5-4.4-11.9-9.5-11.9c-4,0-6.4,2.4-6.4,6c0,11.1,22,5,22,22.3C365.7,87,357.6,91.1,348.3,91.1z"/>
<g>
	<path class="st0" d="M268.1,30.1h-2h-31.9h-24.7v2.8h4c1.3,0,1.9,1,2.2,2.2l15.7,54.5h9.2l8-21.4l6.7,21.4h8.1l13.3-47.4
		c2.2-7.8,4.8-9.4,7.3-9.4h1.1v-2.8H268.1z M241.6,78.6l-12.3-43.1c-0.4-1.5,0.7-2.6,2-2.6h2.9h1.8c1.3,0,1.8,1,2.2,2.2l8.9,28.4
		L241.6,78.6z M250.1,35.5c-0.4-1.5,0.7-2.6,2-2.6h1.7h1.2c3.3,0,2.7,2,1.5,5.4l-3,8.1L250.1,35.5z M273.4,42.1l-10.2,36.5L255,51.5
		l4.8-12.7c1.6-4.3,2.8-6,5.3-6h1.1h2h1.2C274.3,32.9,275.2,35.5,273.4,42.1z"/>
</g>
</svg>
