<?xml version="1.0" encoding="utf-8"?>
<!-- Generator: Adobe Illustrator 22.0.1, SVG Export Plug-In . SVG Version: 6.00 Build 0)  -->
<svg version="1.1" id="Layer_1" xmlns="http://www.w3.org/2000/svg" xmlns:xlink="http://www.w3.org/1999/xlink" x="0px" y="0px"
	 viewBox="0 0 489.333 250" enable-background="new 0 0 489.333 250" xml:space="preserve">
<g>
	<g>
		<polygon points="168.771,113.605 137.156,114.351 139.399,82.814 123.244,83.197 117.509,163.811 133.781,163.428 136.227,129.04 
			167.832,128.294 165.382,162.731 181.509,162.352 187.248,81.667 171.017,82.049 		"/>
		<path d="M221.931,101.58c-8.892-0.31-18.227,3.424-24.373,9.764c-6.856,7.072-10.076,15.615-9.571,25.392
			c0.642,12.405,6.831,20.877,17.9,24.501c3.665,1.2,6.973,1.532,10.59,1.532c0.635,0,1.28-0.01,1.937-0.028
			c12.895-0.342,23.019-12.18,23.444-12.683l1.41-1.673l-10.699-8.437l-1.294,1.786c-0.052,0.072-5.264,7.166-11.796,7.343
			c-6.169,0.458-10.428-1.028-13.399-4.693c-1.254-1.549-2.19-3.964-2.558-5.881l41.027-1.058c0,0,0.182-0.555,0.452-2.041
			c1.941-10.676,0.427-18.635-5.525-25.719C235.298,104.712,229.067,101.835,221.931,101.58z M204.148,126.845
			c1.713-5.23,8.371-11.888,15.003-11.888c0.169,0,0.336-0.01,0.502-0.01c3.27,0,6.231,1.226,8.379,3.482
			c1.776,1.864,2.804,5.15,2.982,7.748L204.148,126.845z"/>
		<path d="M348.913,120.086c-2.211-10.957-9.016-16.079-14.336-18.448c-8.997-4.004-21.072-3.131-30.042,2.174
			c-9.335,5.52-14.687,14.198-15.906,25.792l-0.008,0.109c-0.506,9.475,1.756,16.775,6.913,22.315
			c5.187,5.575,11.869,8.317,20.327,8.317c1.611,0,3.288-0.099,5.03-0.298c6.974-0.795,12.895-3.42,17.598-7.802
			C347.933,143.446,351.441,132.626,348.913,120.086z M305.656,122.77c2.585-6.234,8.306-10.074,14.823-10.074
			c0.464,0,0.935,0.02,1.406,0.06c7.976,0.671,12.39,5.569,12.429,13.792c0.003,0.576-0.054,1.191-0.114,1.844
			c-0.03,0.33-0.06,0.66-0.084,0.988l-0.002,0.045c-0.224,4.485-1.471,8.167-3.813,11.254c-3.901,5.145-11.135,7.42-17.597,5.527
			c-4.296-1.256-6.965-4.045-8.159-8.525C303.228,132.742,303.601,127.726,305.656,122.77z"/>
		<path d="M290.084,99.891c-0.336-0.041-8.823-1.096-14.725,1.074c-2.719,1-5.325,2.921-7.376,4.741l0.325-3.968l-2.333,0.035
			c0,0-7.64,0.116-10.865,0.193l-1.925,0.045l-4.179,58.744l15.523-0.367l0.756-10.615c0.492-6.953,0.984-13.908,1.5-20.862
			c0.096-1.288,0.288-2.528,0.573-3.686c1.449-5.903,7.05-10.822,12.486-10.967c5.013-0.13,9.051,1.553,9.094,1.558L290.084,99.891z
			"/>
	</g>
	<path d="M367.373,141.913c-1.848-2.003-4.449-3.063-7.37-2.986c-5.76,0.153-10.745,4.681-11.348,10.306
		c-0.297,2.769,0.532,5.37,2.336,7.324c1.785,1.933,4.287,2.988,7.071,2.988c0.099,0,0.197-0.001,0.297-0.004
		c5.665-0.15,10.756-4.773,11.349-10.305C370.004,146.468,369.175,143.867,367.373,141.913z"/>
</g>
</svg>
