<?xml version="1.0" encoding="UTF-8"?>
<svg width="45px" height="68px" viewBox="0 0 45 68" version="1.1" xmlns="http://www.w3.org/2000/svg" xmlns:xlink="http://www.w3.org/1999/xlink">
    <!-- Generator: Sketch 45.1 (43504) - http://www.bohemiancoding.com/sketch -->
    <title>BEAUTY ICON</title>
    <desc>Created with Sketch.</desc>
    <defs></defs>
    <g id="Page-1" stroke="none" stroke-width="1" fill="none" fill-rule="evenodd">
        <g id="IGC_Investment-Strategy" transform="translate(-710.000000, -375.000000)">
            <g id="INVESTMENT-STRATEGY-Copy">
                <g id="2-BEAUTY" transform="translate(607.000000, 375.000000)">
                    <g id="BEAUTY-ICON" transform="translate(103.000000, 0.000000)">
                        <path d="M43.2188,40.6994 C43.2188,40.6994 42.0518,38.1574 39.5928,38.1574 L28.5928,38.1574 C25.6768,38.1574 25.0098,40.6994 25.0098,40.6994 L25.0098,66.6574 L43.2188,66.6574 L43.2188,40.6994 Z" id="Fill-1" fill="#E5F0FA"></path>
                        <path d="M15.3702,67.0842 L5.7122,67.0842 C4.9922,67.0842 0.7012,65.1232 0.7012,61.0572 C0.7012,53.0302 0.6972,30.2202 0.6972,30.2202 L1.7192,29.4702 L1.7912,27.1442 L2.6622,25.6192 L2.6622,12.3302 C2.6622,12.3302 5.2042,0.6972 15.3132,0.6972 C18.3482,0.6972 17.2592,12.3302 17.2592,12.3302 L17.2592,25.8802 L18.3482,26.7082 L18.3522,29.6952 L19.4372,30.8482 L19.4372,62.6542 C19.4372,66.1402 17.3312,67.0842 15.3702,67.0842" id="Fill-3" fill="#E5F0FA"></path>
                        <path d="M14.838,67.0383 L5.254,67.0383 C2.737,67.0383 0.697,64.9983 0.697,62.4823 L0.697,30.5013 C0.697,30.0803 1.039,29.7393 1.46,29.7393 L18.632,29.7393 C19.053,29.7393 19.395,30.0803 19.395,30.5013 L19.395,62.4823 C19.395,64.9983 17.355,67.0383 14.838,67.0383 Z" id="Stroke-5" stroke="#0071CE" stroke-width="1.395" stroke-linecap="round"></path>
                        <path d="M42.5635,67.0383 L25.4575,67.0383 C25.0175,67.0383 24.6625,66.6833 24.6625,66.2433 L24.6625,41.7023 C24.6625,39.7643 26.2325,38.1933 28.1695,38.1933 L39.8495,38.1933 C41.7885,38.1933 43.3585,39.7643 43.3585,41.7023 L43.3585,66.2433 C43.3585,66.6833 43.0025,67.0383 42.5635,67.0383 Z" id="Stroke-7" stroke="#0071CE" stroke-width="1.395" stroke-linecap="round"></path>
                        <path d="M1.7393,29.6955 L1.7393,26.8695 C1.7393,26.3235 2.1813,25.8805 2.7283,25.8805 L17.3633,25.8805 C17.9103,25.8805 18.3523,26.3235 18.3523,26.8695 L18.3523,29.6955" id="Stroke-9" stroke="#0071CE" stroke-width="1.395" stroke-linecap="round"></path>
                        <path d="M0.6973,34.8644 L19.3943,34.8644" id="Stroke-11" stroke="#0071CE" stroke-width="1.395" stroke-linecap="round"></path>
                        <path d="M2.754,25.7219 L2.754,12.9719 C2.754,6.6769 10.252,0.6979 15.314,0.6979 C16.326,0.6979 17.338,1.2359 17.338,3.5129 L17.338,25.8479" id="Stroke-13" stroke="#0071CE" stroke-width="1.395" stroke-linecap="round"></path>
                    </g>
                </g>
            </g>
        </g>
    </g>
</svg>