<?xml version="1.0" encoding="utf-8"?>
<!-- Generator: Adobe Illustrator 21.1.0, SVG Export Plug-In . SVG Version: 6.00 Build 0)  -->
<svg version="1.1" id="Layer_1" xmlns="http://www.w3.org/2000/svg" xmlns:xlink="http://www.w3.org/1999/xlink" x="0px" y="0px"
	 viewBox="0 0 39 58" enable-background="new 0 0 39 58" xml:space="preserve">
<path fill="#E5F0FA" stroke="#0071CE" stroke-width="1.395" stroke-linecap="round" stroke-miterlimit="10" d="M31.198,33.598
	c0-5.496,6.566-5.496,6.566,0c0,3.451,0,8.043,0,8.043l0,0.736c0,7.957-6.451,14.408-14.408,14.408
	c-6.311,0-10.846-4.305-13.619-9.708c-2.004-4.298-5.865-12.578-6.768-14.513c-2.323-4.981,3.628-7.756,5.951-2.775
	c0.436,0.935,2.578,5.522,2.578,5.522s0-17.395,0-20.31c0-5.496,6.566-5.496,6.566,0c0,3.451,0,20.31,0,20.31"/>
<path fill="#E5F0FA" stroke="#0071CE" stroke-width="1.395" stroke-linecap="round" stroke-miterlimit="10" d="M18.065,35.342
	c0,0,0-4.58,0-7.496c0-5.496,6.566-5.496,6.566,0v6.805"/>
<path fill="#E5F0FA" stroke="#0071CE" stroke-width="1.395" stroke-linecap="round" stroke-miterlimit="10" d="M24.631,35.311
	c0,0,0-1.673,0-4.588c0-5.496,6.566-5.496,6.566,0c0,3.451,0,4.588,0,4.588"/>
<path fill="#EAEAEA" stroke="#A6A8AB" stroke-width="1.395" stroke-linecap="round" stroke-miterlimit="10" d="M23.356,27.969"/>
<path fill="none" stroke="#0071CE" stroke-width="1.395" stroke-linecap="round" stroke-miterlimit="10" d="M8.246,19.978
	c-1.206-1.463-1.93-3.337-1.93-5.381c0-4.676,3.79-8.466,8.466-8.466s8.466,3.79,8.466,8.466c0,2.044-0.725,3.919-1.931,5.382"/>
<path fill="none" stroke="#0071CE" stroke-width="1.395" stroke-linecap="round" stroke-miterlimit="10" d="M3.131,21.676
	c-1.204-2.024-1.895-4.388-1.895-6.914c0-7.481,6.065-13.546,13.546-13.546S28.327,7.28,28.327,14.761
	c0,2.547-0.703,4.931-1.926,6.966"/>
</svg>
