<?xml version="1.0" encoding="utf-8"?>
<!-- Generator: Adobe Illustrator 22.1.0, SVG Export Plug-In . SVG Version: 6.00 Build 0)  -->
<svg version="1.1" id="Layer_1" xmlns="http://www.w3.org/2000/svg" xmlns:xlink="http://www.w3.org/1999/xlink" x="0px" y="0px"
	 viewBox="0 0 1900 404" style="enable-background:new 0 0 1900 404;" xml:space="preserve">
<style type="text/css">
	.st0{fill:#333333;}
</style>
<g>
	<path class="st0" d="M64.2,179.2c0.2-1.6,0.6-3.2,1-5.2c27.5,0,54.7,0,83,0c-7-6.5-21.3-20.1-21.3-20.1s16.4,0.1,24.7,0.1
		c1.4,0,2.4,0.4,3.2,1.2c5.1,5,10.9,11.1,16.1,16c3.8,3.7,5.5,8,3.5,13.1c-2,5.4-6.5,7.2-11.9,7.2H72.5"/>
	<path class="st0" d="M110,117.3c-1.1,1.3-6.3,3.3-8,5.7c3.3,0,37.7-0.2,50.4,1.1c10.6,1,19.9,6.2,28.3,12.9
		c6.1,4.9,12.1,9.9,18.3,14.7c9.7,7.7,20.8,11.7,33.1,12.4c24.8,1.5,49.4,4,72.7,13.9c17.8,7.6,25.4,18.5,25.4,37.6
		c0,12.3,0,24.7-0.1,37c0,0.5-0.2,1-0.4,1.8c-9.3,0-18.7,0-28.5,0c0-5.6,0-11.2,0-17.3c3.8,0,7.4,0,11.1,0c0-9.8,0.5-19.1-0.2-28.3
		c-0.5-6.6-5.2-10.9-11.3-13.5c-16.8-7.3-34.4-11.2-52.7-12.5c-9.5-0.7-18.9-1.4-28.3-2.9c-12.1-1.9-22.7-7.3-32.3-14.9
		c-5.3-4.3-10.7-8.5-15.9-12.9c-10-8.5-17-12.2-34.5-12.2s-59.1,0.1-62,0.1c3.1-5.9,5.5-11.2,8.6-16.1"/>
	<path class="st0" d="M1078.5,204.9c-0.3,56.1-37.2,104.3-89.2,116c-62.5,14.1-123.8-25.5-137.2-88.5
		c-11.2-52.8,10.6-103.4,55.6-128.7c70.1-39.5,158.7,4.6,169.3,84.3C1077.8,193.6,1078.1,199.2,1078.5,204.9z M863.3,208
		c0.4,3.5,0.7,10,1.8,16.4c0.9,5.4,2.3,10.8,3.9,16c19.5,60.5,87,88.4,141.6,58.6c41.1-22.5,62.1-72.8,50.3-120.6
		c-12.8-51.5-62.6-83.8-114.8-74.6C897.7,112.3,863.3,154.4,863.3,208z"/>
	<path class="st0" d="M1132.3,319.9c0-75.7,0-150.8,0-226.4c1.2-0.1,2.4-0.4,3.7-0.4c23.8,0,47.7-0.2,71.5,0.1
		c14.4,0.2,28.5,2.6,42,7.7c30.4,11.4,50.6,32.7,60.2,63.6c8.7,27.9,8.8,56.3-0.1,84.1c-12.8,40.2-41.5,62.3-82.5,69.1
		c-9.3,1.6-18.9,1.9-28.4,2C1176.9,320.1,1154.9,319.9,1132.3,319.9z M1146.2,105.6c0,67.8,0,134.5,0,201.6c16,0,31.6,0.3,47.3-0.1
		c10.6-0.2,21.4-0.3,31.8-2.2c37.5-6.9,62.4-28.4,72.4-65.7c4.8-17.8,4.8-35.9,2.4-54c-5.1-37.7-29.7-65.7-66.5-75.2
		C1212.3,103.9,1175.8,105.6,1146.2,105.6z"/>
	<path class="st0" d="M757.5,217.4c18.5,34.3,36.8,68,55.4,102.5c-5.3,0-9.8,0.4-14.1-0.2c-1.6-0.2-3.3-2.3-4.2-4
		c-16.4-30.3-32.7-60.6-48.8-91.1c-1.9-3.6-4-4.9-8-4.8c-18,0.2-36,0.1-54,0.1c-1.8,0-3.6,0-5.8,0c0,33.4,0,66.4,0,99.6
		c-4.6,0-8.9,0-13.5,0c0-75.1,0-150.3,0-226.4c1.5,0,3.3,0,5,0c21,0,42-0.2,63,0.1c8.6,0.1,17.4,0.6,25.8,2.4
		c24.3,5,42.2,25.8,43.4,50.9c0.5,9.7,0,19.8-2.5,29.1C793.6,197.2,779.6,211.4,757.5,217.4z M678.1,206.9c0,0,43.7,0.4,64.2,0.1
		c4.7-0.1,9.7-1.1,14.1-2.6c19.8-6.9,28.6-22.2,31.3-41.9c3.1-22.6-7.1-43.8-26.3-51.8c-7-2.9-15.1-4.2-22.8-4.5
		c-16.8-0.7-60.6-0.3-60.6-0.3V206.9z"/>
	<path class="st0" d="M1629.1,229.7c-13.8,0-26.7,0-39.9,0c0-4.3,0-8.2,0-12.3c17.9,0,35.4,0,53.3,0c0,34,0,67.9,0,102.2
		c-4.3,0-8.5,0-13.4,0c0-9.3,0-18.7,0-28.4c-6.1,4.9-11.3,9.8-17.1,13.8c-44.9,31.1-106.3,23.2-142.1-18.1
		c-43.6-50.2-37.2-131.4,13.8-173.1c23.7-19.4,51.3-26.7,81.6-24.1c20.6,1.8,39.8,7.4,57.4,18.4c3.1,1.9,6,4.2,9.3,6.5
		c-2.9,3.7-5.5,7.1-8.3,10.6c-15.8-11.5-33.1-18.3-51.9-21.5c-54.3-9.2-103.2,24-113.9,78c-6.8,34.3-1.7,66.5,20.4,94.5
		c27.1,34.5,74.3,44.5,114.6,25.2c12.5-6,23.5-13.9,32.8-24.1c1.8-2,3.1-5.2,3.1-7.8C1629.3,256.4,1629.1,243.4,1629.1,229.7z"/>
	<path class="st0" d="M472.5,94c29.1,0,57.8-1.4,86.3,0.4c32.2,2.1,54.6,27.4,56.2,59.7c1.5,30.7-11.9,54.4-37.1,65.4
		c-9.9,4.3-20.3,6.2-31.1,6.3c-18.3,0-36.7,0-55,0c-1.8,0-3.6,0-5.8,0c0,31.3,0,62.3,0,93.6c-4.6,0-8.9,0-13.5,0
		C472.5,244.3,472.5,169,472.5,94z M486.1,213.1c19.7,0,39,0,58.3,0c3.2,0,6.4,0.1,9.5-0.3c22.1-2.7,38.4-13.2,44.7-35.4
		c2.1-7.5,2.6-15.8,2.3-23.7c-0.9-21.8-13.4-38.4-33.3-44.5c-6.4-2-13.4-3-20.1-3.2c-19-0.4-38-0.2-57-0.1c-1.4,0-2.9,0.2-4.5,0.3
		C486.1,141.8,486.1,177.1,486.1,213.1z"/>
	<path class="st0" d="M1839.3,93.1c0,0-50.1,84-73.4,123.4c-1.8,3.1-2.9,7.1-2.9,10.7c-0.2,28.8-0.1,57.7-0.1,86.5
		c0,1.8,0,3.6,0,5.8c-4.5,0-8.8,0-13.8,0c0-1.6,0-3.4,0-5.2c0-29.3,0.1-58.7-0.1-88c0-3.1-1-6.6-2.6-9.3
		c-23.6-39.6-74.3-124-74.3-124l15.4,0.1c0,0,44.8,75.6,66.3,112.1c0.5,0.8,1,1.7,1.8,2.9c0.8-1,1.4-1.7,1.8-2.5
		c21.6-36.5,66.4-112.4,66.4-112.4L1839.3,93.1z"/>
	<path class="st0" d="M1372.5,93.3c4.5,0,8.7,0,13.1,0c0,75.4,0,150.6,0,226.2c-4.2,0-8.4,0-13.1,0
		C1372.5,244.3,1372.5,169,1372.5,93.3z"/>
	<path class="st0" d="M288.1,246c0,20.4-16.5,36.9-36.8,36.8c-20.1-0.1-36.3-16.5-36.4-36.7c0-20.5,16.4-36.9,36.8-36.8
		C271.9,209.4,288.1,225.7,288.1,246z M251.6,265.2c10.5,0,19.1-8.5,19.2-18.9c0.2-10.5-8.7-19.4-19.3-19.4
		c-10.5,0-19,8.5-19.2,18.9C232.1,256.4,240.9,265.2,251.6,265.2z"/>
	<path class="st0" d="M199.5,237.6c0,5.7,0,11.1,0,17c-1.7,0.1-3.3,0.3-4.9,0.3c-26.1,0-53.3-0.1-79.4,0.1c-3.6,0-5-1.4-6.4-4.7
		c-1.7-4.1-3.1-9.4-4-12.7C136.5,237.6,167.7,237.6,199.5,237.6z"/>
</g>
<path class="st0" d="M216.7,48.3c-63,0-117.1,37.7-141.2,91.7h20.3c22.7-43.6,68.3-73.4,120.8-73.4c75.2,0,136.1,60.9,136.1,136.1
	s-60.9,136.1-136.1,136.1S80.6,277.9,80.6,202.7c0-9.9,1.1-19.5,3-28.7H64.9c-1.8,9.3-2.7,18.9-2.7,28.7
	c0,85.3,69.1,154.4,154.4,154.4S371.2,288,371.2,202.7S302,48.3,216.7,48.3z"/>
</svg>
