<?xml version="1.0" encoding="utf-8"?>
<!-- Generator: Adobe Illustrator 22.1.0, SVG Export Plug-In . SVG Version: 6.00 Build 0)  -->
<svg version="1.1" id="Layer_1" xmlns="http://www.w3.org/2000/svg" xmlns:xlink="http://www.w3.org/1999/xlink" x="0px" y="0px"
	 viewBox="0 0 709.3 250" style="enable-background:new 0 0 709.3 250;" xml:space="preserve">
<style type="text/css">
	.st0{fill:#C09681;}
</style>
<g>
	<path class="st0" d="M215.4,159.9c-4.2,0-8.1,0-12.1,0c0-35.6,0-114.6,0-150.3c4,0,7.9,0,12,0c0,15.3,0,73.9,0,89.4
		c1.3-1,2.2-1.9,3.3-2.7c11.2-7.6,23-8.6,35.3-2.9c5.7,2.7,8.9,7.7,10.8,13.6c1.4,4.3,1.8,8.7,1.9,13.2c0.1,12.9,0,25.8,0,38.6
		c0,0.3,0,0.6-0.1,1c-4,0-8,0-12.2,0c0-0.7,0-1.3,0-1.9c0-11.7,0.1-23.4,0-35.1c0-3-0.3-6-1-8.9c-1.7-6.9-6.4-11-13.4-12.1
		c-9-1.4-16.8,1.1-23.5,7.4c-0.8,0.7-1,1.5-1,2.5c0,15.4,0,30.8,0,46.2C215.4,158.5,215.4,159.2,215.4,159.9z"/>
	<path class="st0" d="M573.2,90.1c4.2,0,8.1,0,12.1,0c0,35.6,0,114.6,0,150.3c-4,0-7.9,0-12,0c0-15.3,0-73.9,0-89.4
		c-1.3,1-2.2,1.9-3.3,2.7c-11.2,7.6-23,8.6-35.3,2.9c-5.7-2.7-8.9-7.7-10.8-13.6c-1.4-4.3-1.8-8.7-1.9-13.2c-0.1-12.9,0-25.8,0-38.6
		c0-0.3,0-0.6,0.1-1c4,0,8,0,12.2,0c0,0.7,0,1.3,0,1.9c0,11.7-0.1,23.4,0,35.1c0,3,0.3,6,1,8.9c1.7,6.9,6.4,11,13.4,12.1
		c9,1.4,16.8-1.1,23.5-7.4c0.8-0.7,1-1.5,1-2.5c0-15.4,0-30.8,0-46.2C573.2,91.5,573.2,90.8,573.2,90.1z"/>
	<path class="st0" d="M319.4,89.4c8.6,0.3,16.5,2.4,23.3,7.7c7.2,5.5,11.3,12.9,12.8,21.7c1.3,7.4,0.6,14.5-2.2,21.4
		c-4.2,10.2-11.8,16.7-22.3,19.7c-9.8,2.8-19.7,2.3-29-2.2c-10.7-5.1-16.7-13.8-18.7-25.4c-1.3-7.8-0.6-15.3,2.7-22.5
		c4.7-10.3,12.7-16.5,23.6-19C312.8,90.1,316.2,89.9,319.4,89.4z M321.9,150c3.4,0,8.7-1.7,13.2-5.5c8.9-7.5,10.1-22.1,5-31.5
		c-4.1-7.5-10.6-11.3-19-11.8c-8.1-0.5-15,2.1-20.1,8.5c-4.2,5.3-5.6,11.5-5.1,18.2C296.7,140.9,306.4,150,321.9,150z"/>
	<path class="st0" d="M405.8,89.4c8.5,0.3,16.3,2.4,23.2,7.6c7.3,5.5,11.4,12.9,12.9,21.8c1.3,7.6,0.6,15.1-2.6,22.2
		c-4.4,10-12,16.2-22.4,19c-9.7,2.6-19.2,2.1-28.3-2.3c-10.8-5.1-16.9-13.8-18.9-25.5c-1.3-7.8-0.6-15.3,2.7-22.5
		c4.7-10.3,12.7-16.5,23.6-19C399.1,90.1,402.5,89.9,405.8,89.4z M405.8,150c6,0,11.6-2.1,15.6-5.4c8.9-7.5,10.2-22.2,5.1-31.5
		c-4.1-7.6-10.7-11.4-19.1-11.9c-8-0.5-14.9,2.1-20,8.5c-4.3,5.3-5.6,11.5-5.2,18.2C383.1,140.9,392.7,150,405.8,150z"/>
	<path class="st0" d="M455.8,150.8c2.3-2.9,4.5-5.7,6.8-8.7c3.2,3.3,7,5.5,11.2,6.9c4.8,1.7,9.7,2.5,14.7,0.7
		c4.2-1.5,6.5-5.1,6.1-9.3c-0.3-2.5-1.7-4.4-3.9-5.4c-3.8-1.8-7.8-3.3-11.7-4.7c-5.3-1.9-10.7-3.5-15.1-7.2c-3.5-3-5.5-6.8-6.1-11.4
		c-0.6-4.7,0.1-9.1,2.8-13c3-4.4,7.3-6.8,12.3-8c8.4-2,16.6-1.2,24.5,2.4c2.6,1.1,4.9,2.8,7.5,4.4c-2.1,3.4-4,6.5-6,9.6
		c-3.6-3-7.5-5.2-12-6.1c-4.3-0.9-8.5-1.2-12.4,1.4c-5.2,3.4-5.3,10.1,0.1,13.1c3.8,2.1,8,3.4,12.1,5c3.6,1.4,7.3,2.6,10.7,4.3
		c5.9,2.9,9.7,7.5,10.2,14.4c0.5,6.6-1.5,12.1-6.6,16.4c-3.7,3.1-8,4.6-12.7,5.4c-8.9,1.5-17.3,0.1-25.3-4.2
		C460.3,155.2,457.8,153.4,455.8,150.8z"/>
	<path class="st0" d="M186.1,98.3c-1.9,3.2-3.9,6.7-5.6,9.5c-3.1-1.7-5.9-3.8-9.1-4.9c-9.5-3.4-18.7-2.7-26.6,4.3
		c-4.3,3.8-6.8,8.7-7.5,14.3c-1,7.1,0.3,13.7,4.7,19.4c3.9,5,9.2,7.8,15.4,8.7c9.4,1.4,17.4-1.5,24.1-8.4c1.8,2.7,5.6,8.6,5.6,8.6
		s-0.4,0.7-0.7,1.1c-4.1,4.8-9.3,7.7-15.3,9.2c-9.6,2.4-18.9,1.8-27.9-2.3c-10-4.6-16-12.5-18.3-23.2c-2.4-11.4-0.7-22.1,6.4-31.5
		c5.5-7.4,12.9-11.7,22.1-13c7.9-1.1,15.7-0.4,23.2,2.6C180.1,94,182.8,95.5,186.1,98.3z"/>
</g>
</svg>
