<?xml version="1.0" encoding="utf-8"?>
<!-- Generator: Adobe Illustrator 21.1.0, SVG Export Plug-In . SVG Version: 6.00 Build 0)  -->
<svg version="1.1" id="Layer_1" xmlns="http://www.w3.org/2000/svg" xmlns:xlink="http://www.w3.org/1999/xlink" x="0px" y="0px"
	 viewBox="0 0 498 120" style="enable-background:new 0 0 498 120;" xml:space="preserve">
<g>
	<path d="M139,78.8c-2,0-3.8-0.4-4.9-2.4l-19-33l9.5-11.2c4.3-5.2,7.1-7.3,9.5-7.3h2.6v-2.8h-16.2H115H84.3v2.8h4
		c1.3,0,2.1,0.9,2.1,2.1v49.7c0,1.2-0.9,2.1-2.1,2.1h-4v2.8h28.3h1h26.7v-2.8C140.3,78.8,139,78.8,139,78.8z M116.8,78.8h-3.1h-1
		h-6.8c-1.3,0-2.1-0.9-2.1-2.1V27c0-1.2,0.9-2.1,2.1-2.1h9.1h2.9c3.7,0,5.3,4.3,2.4,7.7l-16,19L118.1,76
		C119.1,77.7,118.6,78.8,116.8,78.8z"/>
</g>
<path d="M136.9,99.9c-7.2,0-11.5-4.3-11.5-8.6c0-3.5,2.6-5.5,5.5-5.5c6.3,0,2,10.7,7,10.7c2.7,0,3.8-2.1,3.8-6.7V44.3
	c0-1.2-0.9-2.1-2.1-2.1h-4.5v-2.8h9.7c2.8,0,6.6-1,6.6-4.5h2.3V83C153.7,92.6,148.7,99.9,136.9,99.9z M153.7,26c0,3.3-2.6,6-6,6
	c-3.3,0-6-2.6-6-6s2.6-6,6-6C151,20.1,153.7,22.7,153.7,26z"/>
<path d="M195.8,37.9c11.5,0,15.5,7.7,15.5,21.1h-21c0,0.4,0,0.9,0,1.4c0,14.2,2.6,19.1,7.7,19.1c5.6,0,9.6-4.3,10-11.7h2.6
	c-0.3,8.8-6,15.2-14.3,15.2c-6.7,0-12.6-3.3-15.9-10H180c-0.8,7.1-5.7,10.1-12,10.1c-8.3,0-11.8-5.1-11.8-11c0-11.1,12.5-16,22.2-16
	v-9.4c0-4.2-1.3-5.9-4-5.9c-4.1,0-6.5,3.1-6.5,7.1c0,0.7,0.1,1.4,0.1,2.6c0,3.1-2,5.2-4.9,5.2c-2.6,0-4.6-1.8-4.6-5.3
	c0-6.4,7.7-12.5,17.9-12.5c4.3,0,7.1,1.2,8.9,3.1C188.2,39,191.6,37.9,195.8,37.9z M168.5,71.4c0,4.2,0.9,7.7,4.3,7.7
	c4.8,0,5.6-7.6,5.6-12.3V59C176,59,168.5,58.7,168.5,71.4z M201.1,56.2c0-12.7-1.9-15.2-5.3-15.2c-4,0-5.2,4.1-5.4,15.2H201.1z"/>
<path d="M228.3,60.5v16.2c0,1.2,0.9,2.1,2.1,2.1h3.4v2.8h-23.6v-2.8h4c1.3,0,2.1-0.9,2.1-2.1V44.3c0-1.2-0.9-2.1-2.1-2.1h-4v-2.8
	h9.2c2.8,0,6.6-1,6.6-4.5h2.3v11h0.4c0.9-4.5,4.5-7.9,9.7-7.9c7.4,0,8.6,6.1,8.6,10c0,4.3-2.1,7.7-5.4,7.7c-2.5,0-4.1-1.4-4.1-4.7
	c0-2.9,0.6-4.6,0.6-6.8c0-1.4-0.5-2.4-2.5-2.4C230.9,41.7,228.3,50.3,228.3,60.5z"/>
<path d="M335.7,60.5c0,14.2,2.6,19.1,7.7,19.1c5.6,0,9.6-4.3,10-11.7h2.6c-0.3,8.8-6,15.2-14.3,15.2c-10.2,0-18.8-7.6-18.8-22.5
	c0-14.6,7-22.6,18.3-22.6c11.5,0,15.5,7.7,15.5,21.1h-21C335.7,59.4,335.7,59.9,335.7,60.5z M346.5,56.2c0-12.7-1.9-15.2-5.3-15.2
	c-4,0-5.2,4.1-5.4,15.2H346.5z"/>
<path d="M374.8,76.7c0,1.2,0.9,2.1,2.1,2.1h3.7v2.8h-23.9v-2.8h4c1.3,0,2.1-0.9,2.1-2.1V44.3c0-1.2-0.9-2.1-2.1-2.1h-4v-2.8h9.2
	c2.8,0,6.6-1,6.6-4.5h2.3V76.7z M374.8,26c0,3.3-2.6,6-6,6s-6-2.6-6-6s2.6-6,6-6C372.1,20.1,374.8,22.7,374.8,26z"/>
<path d="M396.3,83.1c-4.8,0-8.7-2-10.1-2c-1,0-1.6,0.5-1.6,1.8h-1.8V67.6h2.6c0.3,8.3,5.4,12.8,11,12.8c4.8,0,8-2.5,8-6.9
	c0-10.8-21.8-4.2-21.8-21.9c0-9.1,7.7-14,15.4-14c4.4,0,7.3,2,8.8,2c1,0,1.6-0.5,1.6-1.6h1.8v14.2h-2.6c-0.3-7.5-4.4-11.9-9.5-11.9
	c-4,0-6.4,2.4-6.4,6c0,11.1,22,5,22,22.3C413.7,79,405.6,83.1,396.3,83.1z"/>
<g>
	<path d="M316.1,22.1h-2h-31.9h-24.7v2.8h4c1.3,0,1.9,1,2.2,2.2l15.7,54.5h9.2l8-21.4l6.7,21.4h8.1l13.3-47.4
		c2.2-7.8,4.8-9.4,7.3-9.4h1.1v-2.8H316.1z M289.6,70.6l-12.3-43.1c-0.4-1.5,0.7-2.6,2-2.6h2.9h1.8c1.3,0,1.8,1,2.2,2.2l8.9,28.4
		L289.6,70.6z M298.1,27.5c-0.4-1.5,0.7-2.6,2-2.6h1.7h1.2c3.3,0,2.7,2,1.5,5.4l-3,8.1L298.1,27.5z M321.4,34.1l-10.2,36.5L303,43.5
		l4.8-12.7c1.6-4.3,2.8-6,5.3-6h1.1h2h1.2C322.3,24.9,323.2,27.5,321.4,34.1z"/>
</g>
</svg>
